<svg xmlns="http://www.w3.org/2000/svg" width="56" height="54" viewBox="0 0 56 54"><path d="M9,5a3,3,0,0,0-1,5.82V57H5a1,1,0,0,0,0,2H59a1,1,0,0,0,0-2H56V22.82A3,3,0,0,0,55,17H32V10.82A3,3,0,0,0,31,5H9ZM9,7H31a1,1,0,0,1,0,2H9A1,1,0,0,1,9,7Zm1,4H30V51H24a2,2,0,0,0-2-2H18a2,2,0,0,0-2,2H10V15h9a1,1,0,0,0,0-2H10Zm13,2a1,1,0,0,0,0,2h4a1,1,0,0,0,0-2Zm-8,4a1,1,0,0,0,0,2h2a1,1,0,0,0,0-2Zm8,0a1,1,0,0,0,0,2h2a1,1,0,0,0,0-2Zm9,2H55a1,1,0,0,1,0,2H32ZM15,21a1,1,0,0,0,0,2h2a1,1,0,0,0,0-2Zm8,0a1,1,0,0,0,0,2h2a1,1,0,0,0,0-2Zm9,2H54V57H32V53h1a1,1,0,0,0,0-2H32V49h1a1,1,0,0,0,0-2H32V45h1a1,1,0,0,0,0-2H32V41h1a1,1,0,0,0,0-2H32V37h1a1,1,0,0,0,0-2H32V33h1a1,1,0,0,0,0-2H32V29h1a1,1,0,0,0,0-2H32ZM15,25a1,1,0,0,0,0,2h2a1,1,0,0,0,0-2Zm8,0a1,1,0,0,0,0,2h2a1,1,0,0,0,0-2Zm16,2a1,1,0,0,0,0,2h2a1,1,0,0,0,0-2Zm8,0a1,1,0,0,0,0,2h2a1,1,0,0,0,0-2ZM15,29a1,1,0,0,0,0,2h2a1,1,0,0,0,0-2Zm8,0a1,1,0,0,0,0,2h2a1,1,0,0,0,0-2Zm16,2a1,1,0,0,0,0,2h2a1,1,0,0,0,0-2Zm8,0a1,1,0,0,0,0,2h2a1,1,0,0,0,0-2ZM15,33a1,1,0,0,0,0,2h2a1,1,0,0,0,0-2Zm8,0a1,1,0,0,0,0,2h2a1,1,0,0,0,0-2Zm16,2a1,1,0,0,0,0,2h2a1,1,0,0,0,0-2Zm8,0a1,1,0,0,0,0,2h2a1,1,0,0,0,0-2ZM15,37a1,1,0,0,0,0,2h2a1,1,0,0,0,0-2Zm8,0a1,1,0,0,0,0,2h2a1,1,0,0,0,0-2Zm16,2a1,1,0,0,0,0,2h2a1,1,0,0,0,0-2Zm8,0a1,1,0,0,0,0,2h2a1,1,0,0,0,0-2ZM15,41a1,1,0,0,0,0,2h2a1,1,0,0,0,0-2Zm8,0a1,1,0,0,0,0,2h2a1,1,0,0,0,0-2Zm16,2a1,1,0,0,0,0,2h2a1,1,0,0,0,0-2Zm8,0a1,1,0,0,0,0,2h2a1,1,0,0,0,0-2ZM15,45a1,1,0,0,0,0,2h2a1,1,0,0,0,0-2Zm8,0a1,1,0,0,0,0,2h2a1,1,0,0,0,0-2Zm16,2a1,1,0,0,0,0,2h2a1,1,0,0,0,0-2Zm8,0a1,1,0,0,0,0,2h2a1,1,0,0,0,0-2ZM18,51h4l0,6H18Zm21,0a1,1,0,0,0,0,2h2a1,1,0,0,0,0-2Zm8,0a1,1,0,0,0,0,2h2a1,1,0,0,0,0-2ZM10,53h6v4H10Zm14,0h6v4H24Z" transform="translate(-4 -5)" fill="#5b5b5b"/></svg>