<svg xmlns="http://www.w3.org/2000/svg" width="56" height="56" viewBox="0 0 56 56"><path d="M11,4A3.006,3.006,0,0,0,8,7V52H4a2,2,0,0,0-2,2v2a4,4,0,0,0,4,4H54a4,4,0,0,0,4-4V7a3.006,3.006,0,0,0-3-3Zm0,2H55a1,1,0,0,1,1,1V56a2,2,0,0,1-4,0V54a2,2,0,0,0-2-2H10V7A1,1,0,0,1,11,6Zm9,6a1,1,0,0,0-1,1v1a3.006,3.006,0,0,0-3,3v3a3.006,3.006,0,0,0,3,3h2a1,1,0,0,1,1,1v3a1,1,0,0,1-1,1H19a1,1,0,0,1-1-1V26a1,1,0,0,0-2,0v1a3.006,3.006,0,0,0,3,3v1a1,1,0,0,0,2,0V30a3.006,3.006,0,0,0,3-3V24a3.006,3.006,0,0,0-3-3H19a1,1,0,0,1-1-1V17a1,1,0,0,1,1-1h2a1,1,0,0,1,1,1v1a1,1,0,0,0,2,0V17a3.006,3.006,0,0,0-3-3V13A1,1,0,0,0,20,12Zm9,2a1,1,0,0,0,0,2h8a1,1,0,0,0,0-2Zm12,0a1,1,0,0,0,0,2h6a1,1,0,0,0,0-2ZM29,18a1,1,0,0,0,0,2H43a1,1,0,0,0,0-2Zm0,10a1,1,0,0,0,0,2H47a1,1,0,0,0,0-2Zm0,4a1,1,0,0,0,0,2h8a1,1,0,0,0,0-2Zm12,0a1,1,0,0,0,0,2h2a1,1,0,0,0,0-2ZM14,44a1,1,0,0,0-1,1v2a1,1,0,0,0,2,0V45A1,1,0,0,0,14,44Zm5,0a1,1,0,0,0-1,1v2a1,1,0,0,0,2,0V45A1,1,0,0,0,19,44Zm5,0a1,1,0,0,0-1,1v2a1,1,0,0,0,2,0V45A1,1,0,0,0,24,44Zm5,0a1,1,0,0,0-1,1v2a1,1,0,0,0,2,0V45A1,1,0,0,0,29,44Zm5,0a1,1,0,0,0-1,1v2a1,1,0,0,0,2,0V45A1,1,0,0,0,34,44Zm5,0a1,1,0,0,0-1,1v2a1,1,0,0,0,2,0V45A1,1,0,0,0,39,44Zm5,0a1,1,0,0,0-1,1v2a1,1,0,0,0,2,0V45A1,1,0,0,0,44,44Zm5,0a1,1,0,0,0-1,1v2a1,1,0,0,0,2,0V45A1,1,0,0,0,49,44Zm5,0a1,1,0,0,0-1,1v2a1,1,0,0,0,2,0V45A1,1,0,0,0,54,44ZM4,54H50v2a3.925,3.925,0,0,0,.559,2H6a2,2,0,0,1-2-2Z" transform="translate(-2 -4)" fill="#5b5b5b"/></svg>