<svg xmlns="http://www.w3.org/2000/svg" width="64" height="62.232" viewBox="0 0 64 62.232"><path d="M28,2a3,3,0,0,0-3,3,2.96,2.96,0,0,0,.373,1.418L17.588,16H3a3,3,0,0,0-3,3v6a3,3,0,0,0,2.131,2.871l4.6,27.621A2.991,2.991,0,0,0,9.693,58H44.318l.969,2.443a2,2,0,0,0,3.58.279L51.223,56.4l7.543,7.543a1,1,0,0,0,1.414,0l3.289-3.289a1,1,0,0,0,0-1.414L55.928,51.7l4.291-2.328a2,2,0,0,0-.277-3.58l-.994-.395,2.92-17.522A3,3,0,0,0,64,25V19a3,3,0,0,0-3-3H46.412L38.627,6.418A2.96,2.96,0,0,0,39,5a3,3,0,1,0-3,3,2.969,2.969,0,0,0,1.148-.23L43.838,16H20.162l6.69-8.23A2.969,2.969,0,0,0,28,8a3,3,0,0,0,0-6Zm0,2a1,1,0,1,1-1,1A1,1,0,0,1,28,4Zm8,0a1,1,0,1,1-1,1A1,1,0,0,1,36,4ZM3,18H15.963l-2.738,3.369a1,1,0,1,0,1.551,1.262L18.537,18H45.463l3.762,4.631a1,1,0,1,0,1.551-1.262L48.037,18H61a1,1,0,0,1,1,1v6a1,1,0,0,1-1,1,1,1,0,0,0-.986.836l-2.967,17.8L37.8,37a1,1,0,0,0-1.3,1.3L43.525,56H9.693a1,1,0,0,1-.986-.836L8.49,53.854A.987.987,0,0,0,9,53V51a1,1,0,0,0-1-1,.928.928,0,0,0-.148.029L4.18,28H49a1,1,0,0,0,0-2H3a1,1,0,0,1-1-1V19A1,1,0,0,1,3,18Zm50,8a1,1,0,0,0,0,2h4a1,1,0,0,0,0-2ZM39.217,39.713,59.2,47.646l-5.4,2.982a1,1,0,0,0-.2,1.566l7.748,7.748-1.875,1.875L51.727,54.07a1,1,0,0,0-.707-.293.875.875,0,0,0-.125.008,1,1,0,0,0-.736.482L47.148,59.7ZM13,50a1,1,0,0,0-1,1v2a1,1,0,0,0,2,0V51A1,1,0,0,0,13,50Zm5,0a1,1,0,0,0-1,1v2a1,1,0,0,0,2,0V51A1,1,0,0,0,18,50Zm5,0a1,1,0,0,0-1,1v2a1,1,0,0,0,2,0V51A1,1,0,0,0,23,50Zm5,0a1,1,0,0,0-1,1v2a1,1,0,0,0,2,0V51A1,1,0,0,0,28,50Zm5,0a1,1,0,0,0-1,1v2a1,1,0,0,0,2,0V51A1,1,0,0,0,33,50Zm5,0a1,1,0,0,0-1,1v2a1,1,0,0,0,2,0V51A1,1,0,0,0,38,50Z" transform="translate(0 -2)" fill="#5b5b5b"/></svg>