<svg xmlns="http://www.w3.org/2000/svg" width="64" height="52" viewBox="0 0 64 52"><path d="M3,8a2.993,2.993,0,0,0-1,5.816V42.186A2.993,2.993,0,0,0,0,45v6a3,3,0,0,0,3,3H8.08a6.99,6.99,0,0,0,13.84,0H44.08a6.99,6.99,0,0,0,13.84,0H61a3,3,0,0,0,3-3V45a3,3,0,0,0-2.035-2.826A.924.924,0,0,0,62,42V38.176a4.993,4.993,0,0,0-.795-2.705L54.021,24.3A4.978,4.978,0,0,0,49.816,22H48V20a1,1,0,0,0-2,0v2H42V13.816A2.993,2.993,0,0,0,41,8Zm0,2H41a1,1,0,0,1,0,2H3a1,1,0,0,1,0-2Zm1,4H40V42H4Zm18,2A12,12,0,1,0,34,28,12.013,12.013,0,0,0,22,16Zm0,2A10,10,0,1,1,12,28,10.011,10.011,0,0,1,22,18Zm20,6h7.816a2.988,2.988,0,0,1,2.523,1.377l7.184,11.176A3,3,0,0,1,60,38.176V42H42Zm-15,.055a1,1,0,0,0-.707.293L20,30.641l-2.293-2.293a1,1,0,0,0-1.414,1.414l3,3a1,1,0,0,0,1.414,0l7-7A1,1,0,0,0,27,24.055ZM46,26a2,2,0,0,0-2,2v6a2,2,0,0,0,2,2h7.2a2,2,0,0,0,1.7-3.059l-3.75-6a1.992,1.992,0,0,0-1.7-.94Zm0,2h3.445L53.2,34H46ZM45,38a1,1,0,0,0,0,2h2a1,1,0,0,0,0-2ZM3,44H61a1,1,0,0,1,1,1v6a1,1,0,0,1-1,1H57.92a6.99,6.99,0,0,0-13.84,0H21.92A6.99,6.99,0,0,0,8.08,52H3a1,1,0,0,1-1-1V50a1,1,0,0,0,1-1V47a1,1,0,0,0-1-1V45A1,1,0,0,1,3,44Zm4,2a1,1,0,0,0-1,1v2a1,1,0,0,0,2,0V47A1,1,0,0,0,7,46Zm16,0a1,1,0,0,0-1,1v2a1,1,0,0,0,2,0V47A1,1,0,0,0,23,46Zm5,0a1,1,0,0,0-1,1v2a1,1,0,0,0,2,0V47A1,1,0,0,0,28,46Zm5,0a1,1,0,0,0-1,1v2a1,1,0,0,0,2,0V47A1,1,0,0,0,33,46Zm5,0a1,1,0,0,0-1,1v2a1,1,0,0,0,2,0V47A1,1,0,0,0,38,46Zm5,0a1,1,0,0,0-1,1v2a1,1,0,0,0,2,0V47A1,1,0,0,0,43,46Zm16,0a1,1,0,0,0-1,1v2a1,1,0,0,0,2,0V47A1,1,0,0,0,59,46ZM15,48a5,5,0,1,1-5,5A5.006,5.006,0,0,1,15,48Zm36,0a5,5,0,1,1-5,5A5.006,5.006,0,0,1,51,48ZM15,51a2,2,0,1,0,2,2A2,2,0,0,0,15,51Zm36,0a2,2,0,1,0,2,2A2,2,0,0,0,51,51Z" transform="translate(0 -8)" fill="#5b5b5b"/></svg>