<svg xmlns="http://www.w3.org/2000/svg" width="70" height="70" viewBox="0 0 70 70"><path d="M37,2A35,35,0,1,0,72,37,35.04,35.04,0,0,0,37,2Zm0,2.414A32.586,32.586,0,1,1,4.414,37,32.625,32.625,0,0,1,37,4.414Zm0,8.448a24.285,24.285,0,0,0-19.31,9.674V17.591a1.207,1.207,0,1,0-2.414,0v8.547a1.206,1.206,0,0,0,1.207,1.207h8.448a1.207,1.207,0,0,0,0-2.414H18.944A21.722,21.722,0,1,1,37,58.724a21.516,21.516,0,0,1-15.841-6.86A1.209,1.209,0,1,0,19.4,53.519,24.139,24.139,0,1,0,37,12.862ZM37,18.9A1.206,1.206,0,0,0,35.793,20.1v2.414a1.207,1.207,0,0,0,2.414,0V20.1A1.206,1.206,0,0,0,37,18.9Zm12.069,4.828a1.207,1.207,0,0,0-.853.354l-10.6,10.6a2.414,2.414,0,1,0,0,4.648l5.167,5.167a1.207,1.207,0,0,0,1.707-1.707l-5.167-5.167a2.174,2.174,0,0,0,0-1.235l10.6-10.6a1.207,1.207,0,0,0-.853-2.06Zm3.616,5.737a1.285,1.285,0,0,0-.471.09l-2.239.905a1.206,1.206,0,0,0,.453,2.324,1.168,1.168,0,0,0,.453-.085l2.239-.905a1.209,1.209,0,0,0-.434-2.329ZM20.1,35.793a1.207,1.207,0,0,0,0,2.414h2.414a1.207,1.207,0,0,0,0-2.414Zm31.379,0a1.207,1.207,0,0,0,0,2.414H53.9a1.207,1.207,0,0,0,0-2.414Zm-1.075,5.426a1.207,1.207,0,0,0-.434,2.324l2.239.905a1.191,1.191,0,0,0,.453.09,1.209,1.209,0,0,0,.453-2.329L50.879,41.3A1.16,1.16,0,0,0,50.408,41.219ZM15.875,44.736a1.163,1.163,0,0,0-.467.094,1.2,1.2,0,0,0-.641,1.579,24.446,24.446,0,0,0,1.41,2.81,1.2,1.2,0,0,0,1.042.589,1.176,1.176,0,0,0,.608-.16,1.209,1.209,0,0,0,.429-1.655,22.083,22.083,0,0,1-1.263-2.522A1.213,1.213,0,0,0,15.875,44.736ZM47.4,45.854a1.2,1.2,0,0,0-.816,2.074L48.315,49.6a1.169,1.169,0,0,0,.834.34,1.2,1.2,0,0,0,.844-2.074l-1.735-1.674A1.214,1.214,0,0,0,47.4,45.854ZM37,50.276a1.206,1.206,0,0,0-1.207,1.207V53.9a1.207,1.207,0,0,0,2.414,0V51.483A1.206,1.206,0,0,0,37,50.276Z" transform="translate(-2 -2)" fill="#ec421d"/></svg>