<svg xmlns="http://www.w3.org/2000/svg" width="107.114" height="72.771" viewBox="0 0 107.114 72.771"><g transform="translate(-699.508 0)"><g transform="translate(699.508 0)"><path d="M-258.95,322.574h0a41.414,41.414,0,0,1-20.707,35.865l-.9.52.9.521a41.414,41.414,0,0,1,20.707,35.865H-187.7a14.254,14.254,0,0,0,14.254-14.254V336.828A14.254,14.254,0,0,0-187.7,322.574Z" transform="translate(280.559 -322.574)" fill="#ec421d"/></g><g transform="translate(742.25 21.119)"><g transform="translate(8.404 8.836)"><path d="M-214.651,348.565l-24.7-3.783,3.783,24.7,6.787-6.787,11.261,11.261,7.338-7.339-11.261-11.261Z" transform="translate(239.347 -344.782)" fill="#fff"/></g><g transform="translate(1.665)"><line x2="4.672" y2="5.678" fill="none" stroke="#fff" stroke-linecap="round" stroke-miterlimit="10" stroke-width="1.393"/></g><g transform="translate(13.119 1.665)"><line x1="5.678" y2="4.672" fill="none" stroke="#fff" stroke-linecap="round" stroke-miterlimit="10" stroke-width="1.393"/></g><g transform="translate(0 12.46)"><line x1="5.678" y2="4.672" fill="none" stroke="#fff" stroke-linecap="round" stroke-miterlimit="10" stroke-width="1.393"/></g></g></g></svg>