<svg xmlns="http://www.w3.org/2000/svg" width="74.667" height="70" viewBox="0 0 74.667 70"><path d="M40.833,2A15.167,15.167,0,1,0,56,17.167,15.184,15.184,0,0,0,40.833,2Zm0,2.333A12.833,12.833,0,1,1,28,17.167,12.848,12.848,0,0,1,40.833,4.333Zm0,3.5a2.333,2.333,0,1,0,2.333,2.333A2.333,2.333,0,0,0,40.833,7.833ZM38.5,13.667A1.167,1.167,0,0,0,38.5,16h1.167v7H38.5a1.167,1.167,0,0,0,0,2.333h4.667a1.167,1.167,0,1,0,0-2.333H42V16h1.167a1.167,1.167,0,0,0,0-2.333Zm-35,7a3.51,3.51,0,0,0-3.5,3.5V68.5A3.51,3.51,0,0,0,3.5,72H5.833a3.51,3.51,0,0,0,3.5-3.5V63.833A1.17,1.17,0,0,1,10.5,62.667H64.167a1.17,1.17,0,0,1,1.167,1.167V68.5a3.51,3.51,0,0,0,3.5,3.5h2.333a3.51,3.51,0,0,0,3.5-3.5V38.167a3.51,3.51,0,0,0-3.5-3.5H68.833a3.51,3.51,0,0,0-3.5,3.5v.419a10.453,10.453,0,0,0-8.167-3.919H26.833a3.457,3.457,0,0,0-2.2.8,12.851,12.851,0,0,0-11.8-7.8h-3.5v-3.5a3.51,3.51,0,0,0-3.5-3.5ZM3.5,23H5.833A1.17,1.17,0,0,1,7,24.167V46.333a2.34,2.34,0,0,0,2.333,2.333H67.667v-10.5A1.17,1.17,0,0,1,68.833,37h2.333a1.17,1.17,0,0,1,1.167,1.167V51a1.167,1.167,0,0,0-1.167,1.167V54.5a1.167,1.167,0,0,0,1.167,1.167V68.5a1.17,1.17,0,0,1-1.167,1.167H68.833A1.17,1.17,0,0,1,67.667,68.5V63.833a3.51,3.51,0,0,0-3.5-3.5H10.5a3.51,3.51,0,0,0-3.5,3.5V68.5a1.17,1.17,0,0,1-1.167,1.167H3.5A1.17,1.17,0,0,1,2.333,68.5V55.667A1.167,1.167,0,0,0,3.5,54.5V52.167A1.167,1.167,0,0,0,2.333,51V24.167A1.17,1.17,0,0,1,3.5,23Zm5.833,7h3.5a10.513,10.513,0,0,1,10.5,10.5v1.167h-3.5a10.513,10.513,0,0,1-10.5-10.5Zm17.5,7H57.167a8.14,8.14,0,0,1,5.706,2.333H38.5a1.167,1.167,0,0,0,0,2.333H64.167A1.149,1.149,0,0,0,64.5,41.6a8.107,8.107,0,0,1,.832,3.568v1.167H25.667V38.167A1.17,1.17,0,0,1,26.833,37Zm-17.5,1.522A12.821,12.821,0,0,0,19.833,44h3.5v2.333h-14Zm19.833.811a1.167,1.167,0,1,0,0,2.333h4.667a1.167,1.167,0,0,0,0-2.333ZM8.167,51A1.167,1.167,0,0,0,7,52.167V54.5a1.167,1.167,0,0,0,2.333,0V52.167A1.167,1.167,0,0,0,8.167,51ZM14,51a1.167,1.167,0,0,0-1.167,1.167V54.5a1.167,1.167,0,0,0,2.333,0V52.167A1.167,1.167,0,0,0,14,51Zm5.833,0a1.167,1.167,0,0,0-1.167,1.167V54.5A1.167,1.167,0,0,0,21,54.5V52.167A1.167,1.167,0,0,0,19.833,51Zm5.833,0A1.167,1.167,0,0,0,24.5,52.167V54.5a1.167,1.167,0,0,0,2.333,0V52.167A1.167,1.167,0,0,0,25.667,51ZM31.5,51a1.167,1.167,0,0,0-1.167,1.167V54.5a1.167,1.167,0,0,0,2.333,0V52.167A1.167,1.167,0,0,0,31.5,51Zm5.833,0a1.167,1.167,0,0,0-1.167,1.167V54.5a1.167,1.167,0,0,0,2.333,0V52.167A1.167,1.167,0,0,0,37.333,51Zm5.833,0A1.167,1.167,0,0,0,42,52.167V54.5a1.167,1.167,0,0,0,2.333,0V52.167A1.167,1.167,0,0,0,43.167,51ZM49,51a1.167,1.167,0,0,0-1.167,1.167V54.5a1.167,1.167,0,0,0,2.333,0V52.167A1.167,1.167,0,0,0,49,51Zm5.833,0a1.167,1.167,0,0,0-1.167,1.167V54.5A1.167,1.167,0,0,0,56,54.5V52.167A1.167,1.167,0,0,0,54.833,51Zm5.833,0A1.167,1.167,0,0,0,59.5,52.167V54.5a1.167,1.167,0,0,0,2.333,0V52.167A1.167,1.167,0,0,0,60.667,51ZM66.5,51a1.167,1.167,0,0,0-1.167,1.167V54.5a1.167,1.167,0,0,0,2.333,0V52.167A1.167,1.167,0,0,0,66.5,51Z" transform="translate(0 -2)" fill="#ec421d"/></svg>