<svg xmlns="http://www.w3.org/2000/svg" width="70" height="70" viewBox="0 0 70 70"><path d="M29.672,2.009a7.77,7.77,0,0,0-.916.082,8.227,8.227,0,0,0-6.868,7.128A7.4,7.4,0,0,0,20.147,9c-.023,0-.041,0-.064,0s-.023.009-.036.009a7.8,7.8,0,0,0-1.481.141,7.582,7.582,0,0,0-5.824,9.333A7.579,7.579,0,0,0,7.624,29.6a9.564,9.564,0,0,0-1.071.56L6.32,30.3a10.059,10.059,0,0,0-.911.656c-.128.1-.237.214-.355.324s-.219.187-.319.292c-.018.014-.023.036-.036.055A9.264,9.264,0,0,0,2,38.167a9.371,9.371,0,0,0,3.058,6.9c0,.014-.009.032-.014.046-.041.1-.073.191-.109.292a8.322,8.322,0,0,0-.26.807c-.018.064-.05.128-.068.2,0,.023,0,.046,0,.068a9.271,9.271,0,0,0,5.678,10.892c0,.009,0,.018,0,.032a5.982,5.982,0,0,0-.118,1.189A6.422,6.422,0,0,0,15.8,64.95a11.653,11.653,0,0,0,18.849,3.733,3.385,3.385,0,0,1,4.7,0A11.653,11.653,0,0,0,58.2,64.95a6.422,6.422,0,0,0,5.633-6.366,6.564,6.564,0,0,0-.114-1.2.035.035,0,0,1,0-.018A9.244,9.244,0,0,0,69.6,47.6c-.014-.137-.036-.269-.059-.406-.032-.21-.073-.415-.123-.624-.037-.159-.073-.319-.119-.478s-.109-.342-.169-.51-.109-.337-.178-.506a.035.035,0,0,1-.009-.014A9.354,9.354,0,0,0,72,38.167a9.257,9.257,0,0,0-4.051-7.674c-.023-.018-.036-.046-.064-.064a1.349,1.349,0,0,0-.137-.082c-.15-.1-.31-.182-.465-.273-.219-.123-.437-.237-.665-.346-.087-.036-.159-.087-.246-.123a7.576,7.576,0,0,0-5.113-11.12A7.582,7.582,0,0,0,55.434,9.15a7.8,7.8,0,0,0-1.481-.141c-.014,0-.023-.009-.037-.009s-.041,0-.064,0a7.6,7.6,0,0,0-.971.068c-.087.014-.173.032-.26.046-.173.032-.342.059-.51.1A8.563,8.563,0,0,0,51.674,7.4,8.152,8.152,0,0,0,38.508,4.124a2.269,2.269,0,0,1-3.017,0A8.165,8.165,0,0,0,29.672,2.009Zm.087,2.329a5.85,5.85,0,0,1,4.161,1.508,4.608,4.608,0,0,0,6.157,0,5.822,5.822,0,0,1,9.406,2.347,5.727,5.727,0,0,1,.346,2,7.544,7.544,0,0,0-2.73,3.062,1.167,1.167,0,1,0,2.1,1.025,5.191,5.191,0,0,1,2.333-2.365,4.8,4.8,0,0,1,.761-.319c.018,0,.032-.014.05-.018a5.241,5.241,0,0,1,6.244,7.4,1.168,1.168,0,0,0,.1,1.148,1.247,1.247,0,0,0,1.066.542A5.215,5.215,0,0,1,64,28.956a9.339,9.339,0,0,0-4.648.483,1.168,1.168,0,1,0,.834,2.183,7.005,7.005,0,0,1,4.092-.255,6.466,6.466,0,0,1,.994.314c.1.037.187.082.278.123a6.214,6.214,0,0,1,.715.369c.077.05.164.091.242.141a6.969,6.969,0,0,1,1.221,10.664,9.3,9.3,0,0,0-2.447-2.224,1.164,1.164,0,1,0-1.235,1.973,6.959,6.959,0,0,1,2.42,2.548c.009.009,0,.018.014.027a7.008,7.008,0,0,1,.857,3.363,6.96,6.96,0,0,1-4.489,6.508,6.424,6.424,0,0,0-5.077-2.99,7.323,7.323,0,0,0-.661-5.337,1.165,1.165,0,0,0-2.055,1.1,5.17,5.17,0,0,1,.615,2.47,5.237,5.237,0,0,1-4.01,5.1,1.165,1.165,0,0,0,.273,2.3,1.123,1.123,0,0,0,.273-.032,7.51,7.51,0,0,0,4.525-3.2,3.893,3.893,0,0,1,.688-.082,4.083,4.083,0,0,1,.041,8.167,1.135,1.135,0,0,0-1.167.775,9.329,9.329,0,0,1-15.308,3.577,5.735,5.735,0,0,0-7.966,0,9.329,9.329,0,0,1-15.308-3.577,1.113,1.113,0,0,0-1.167-.775A4.089,4.089,0,0,1,12.5,58.583a4.185,4.185,0,0,1,.077-.8,4.433,4.433,0,0,1,.232-.747v0A4.081,4.081,0,0,1,16.583,54.5a4.371,4.371,0,0,1,.688.082,7.521,7.521,0,0,0,4.507,3.2,1.168,1.168,0,0,0,.551-2.27,5.234,5.234,0,0,1-4-5.1,5.166,5.166,0,0,1,.547-2.333,1.168,1.168,0,1,0-2.092-1.039,7.332,7.332,0,0,0-.556,5.141,6.409,6.409,0,0,0-5.072,2.99,6.958,6.958,0,0,1-4.493-6.508,7.1,7.1,0,0,1,.219-1.732,6.565,6.565,0,0,1,.273-.848c.055-.132.123-.26.182-.392a7.067,7.067,0,0,1,1.44-2.042A1.167,1.167,0,0,0,7.15,41.986a9.087,9.087,0,0,0-.88.994,6.961,6.961,0,0,1,.246-9.88c.082-.078.164-.155.246-.223a6.7,6.7,0,0,1,.761-.579c.036-.027.077-.046.109-.068a7.062,7.062,0,0,1,2.124-.88h.009a6.957,6.957,0,0,1,3.65.132,1.166,1.166,0,1,0,.688-2.228,8.977,8.977,0,0,0-4.111-.31,5.214,5.214,0,0,1,4.225-8.276l.123,0a1.168,1.168,0,0,0,1.071-1.7,5.244,5.244,0,0,1,5.382-7.588c.027,0,.055.014.077.018a5.343,5.343,0,0,1,.711.159c.077.023.155.05.228.077a6.049,6.049,0,0,1,.56.232,5.241,5.241,0,0,1,2.27,2.105,1.168,1.168,0,0,0,2.023-1.167,7.6,7.6,0,0,0-2.5-2.593,5.753,5.753,0,0,1,.351-2.023,5.888,5.888,0,0,1,4.576-3.8A6.555,6.555,0,0,1,29.758,4.338ZM35.833,9a1.167,1.167,0,0,0,0,2.333h2.333a1.167,1.167,0,0,0,0-2.333Zm0,5.833a1.167,1.167,0,0,0,0,2.333h2.333a1.167,1.167,0,0,0,0-2.333Zm9.607,3.45a1.23,1.23,0,0,0-.433.178A7.59,7.59,0,0,0,43.4,29.576a1.174,1.174,0,0,0,.9.424,1.167,1.167,0,0,0,.9-1.909A5.251,5.251,0,0,1,46.315,20.4a1.168,1.168,0,0,0-.875-2.115Zm-17.058.15a1.167,1.167,0,0,0-.515,2.092A5.252,5.252,0,0,1,28.8,28.09a1.167,1.167,0,0,0,1.8,1.486,7.587,7.587,0,0,0-1.349-10.928A1.167,1.167,0,0,0,28.382,18.434Zm7.451,2.233a1.167,1.167,0,0,0,0,2.333h2.333a1.167,1.167,0,0,0,0-2.333Zm0,5.833a1.167,1.167,0,1,0,0,2.333h2.333a1.167,1.167,0,1,0,0-2.333ZM20,26.587a1.166,1.166,0,0,0-1.167,1.167,7.535,7.535,0,0,0,4.256,6.813,1.132,1.132,0,0,0,.51.118,1.155,1.155,0,0,0,1.048-.656,1.167,1.167,0,0,0-.538-1.559,5.215,5.215,0,0,1-2.944-4.717A1.166,1.166,0,0,0,20,26.587Zm33.911.283a1.169,1.169,0,0,0-1.167,1.167,5.268,5.268,0,0,1-2.639,4.557,1.169,1.169,0,0,0,.579,2.183,1.2,1.2,0,0,0,.583-.16,7.6,7.6,0,0,0,3.81-6.581A1.169,1.169,0,0,0,53.912,26.869ZM35.833,32.333a1.167,1.167,0,0,0,0,2.333h2.333a1.167,1.167,0,0,0,0-2.333Zm0,5.833a1.167,1.167,0,0,0,0,2.333h2.333a1.167,1.167,0,0,0,0-2.333Zm-14.114,2.3a6.492,6.492,0,0,0-.889.077,1.168,1.168,0,0,0,.346,2.31,5.257,5.257,0,0,1,4.5,1.477,5.125,5.125,0,0,1,.989,1.385,1.172,1.172,0,0,0,1.048.647,1.221,1.221,0,0,0,.515-.123,1.166,1.166,0,0,0,.529-1.563,7.466,7.466,0,0,0-1.436-2A7.622,7.622,0,0,0,21.719,40.464Zm30.944,0a7.611,7.611,0,0,0-7.041,4.211,1.17,1.17,0,0,0,2.1,1.039,5.123,5.123,0,0,1,.989-1.385,5.2,5.2,0,0,1,4.5-1.477,1.182,1.182,0,0,0,1.331-.984,1.168,1.168,0,0,0-.984-1.326A6.43,6.43,0,0,0,52.663,40.464ZM35.833,44a1.167,1.167,0,0,0,0,2.333h2.333a1.167,1.167,0,0,0,0-2.333Zm0,5.833a1.167,1.167,0,0,0,0,2.333h2.333a1.167,1.167,0,0,0,0-2.333Zm9.607,3.45a1.23,1.23,0,0,0-.433.178A7.59,7.59,0,0,0,42.5,63.2a1.159,1.159,0,0,0,1.039.633,1.132,1.132,0,0,0,.533-.128,1.162,1.162,0,0,0,.5-1.568,5.261,5.261,0,0,1,1.745-6.74,1.168,1.168,0,0,0-.875-2.115Zm-17.058.15a1.167,1.167,0,0,0-.515,2.092A5.277,5.277,0,0,1,30,59.75a5.213,5.213,0,0,1-.574,2.388,1.17,1.17,0,0,0,.506,1.572A1.166,1.166,0,0,0,31.5,63.2a7.58,7.58,0,0,0-2.247-9.557A1.167,1.167,0,0,0,28.382,53.434Zm7.451,2.233a1.167,1.167,0,0,0,0,2.333h2.333a1.167,1.167,0,0,0,0-2.333Zm0,5.833a1.167,1.167,0,1,0,0,2.333h2.333a1.167,1.167,0,1,0,0-2.333Z" transform="translate(-2 -2)" fill="#ec421d"/></svg>