<svg xmlns="http://www.w3.org/2000/svg" width="65.489" height="70" viewBox="0 0 65.489 70"><path d="M20.987,0A1.127,1.127,0,0,0,20,.59L6.87,24.71a1.128,1.128,0,0,0,.994,1.669h6.329L5.432,41.258a1.131,1.131,0,0,0,1.683,1.455l6.128-4.922a14.733,14.733,0,0,0,.5,3.211c.966,3.608,2.994,6.257,5.127,6.837C22.4,58.965,31.352,70,41.993,70s19.59-11.035,23.122-22.162c2.133-.58,4.163-3.229,5.13-6.837,1.239-4.629.2-8.651-2.431-9.354a3.111,3.111,0,0,0-1.775.082,21.223,21.223,0,0,0-1.148-6.879,2.122,2.122,0,0,1-.205-1.031c.323-.253,1.977-.031,3.555.623a1.131,1.131,0,0,0,1.539-1.285c-2.859-13.086-12.566-20.9-25.966-20.9H41.993a26.943,26.943,0,0,0-5.741.707l.837-1.186A1.13,1.13,0,0,0,36.166,0Zm.673,2.261H33.984l-10.454,14.8a1.133,1.133,0,0,0,.923,1.784h8.76L10.515,37.08l6.627-11.255a1.132,1.132,0,0,0-.974-1.7h-6.4ZM41.993,4.522h1.819c11.764,0,20.145,6.228,23.27,17.173-1.364-.32-3.005-.427-3.962.49-.8.763-.913,1.923-.351,3.447a22.732,22.732,0,0,1,.941,9.261,1.13,1.13,0,0,0,1.056,1.2l.075,0a1.129,1.129,0,0,0,1.126-1.058c.018-.28.025-.548.038-.821a1.054,1.054,0,0,0,.194-.077,1.455,1.455,0,0,1,1.029-.309c.986.267,1.8,2.961.832,6.585-.924,3.445-2.807,5.28-3.814,5.28h0a1.131,1.131,0,0,0-1.084.808C60.026,57.057,51.749,67.739,42,67.739S23.964,57.057,20.828,46.5a1.132,1.132,0,0,0-1.084-.808h0c-1.006,0-2.89-1.835-3.814-5.28a10.839,10.839,0,0,1-.3-4.54L37.133,18.6a1.13,1.13,0,0,0-.707-2.012H26.638L34.2,5.872A25.753,25.753,0,0,1,41.993,4.522ZM41.77,6.788A1.129,1.129,0,0,0,40.732,8l.177,2.186a1.129,1.129,0,0,0,1.124,1.042c.031,0,.06,0,.091,0a1.131,1.131,0,0,0,1.038-1.217l-.174-2.186A1.136,1.136,0,0,0,41.77,6.788Zm6.346.3a1.131,1.131,0,0,0-1.3.934l-.353,2.16a1.129,1.129,0,0,0,.932,1.3,1.163,1.163,0,0,0,.185.015,1.131,1.131,0,0,0,1.113-.95l.353-2.16A1.129,1.129,0,0,0,48.117,7.091Zm5.622,1.97a1.132,1.132,0,0,0-1.047.685l-.857,1.987a1.131,1.131,0,1,0,2.076.9l.857-1.987a1.13,1.13,0,0,0-.59-1.486A1.117,1.117,0,0,0,53.739,9.06Zm4.975,3.553a1.123,1.123,0,0,0-.751.428l-1.3,1.68a1.13,1.13,0,1,0,1.786,1.385l1.3-1.678a1.131,1.131,0,0,0-1.033-1.815ZM37.966,20.971a1.131,1.131,0,0,0-.294,2.2,36.386,36.386,0,0,0,11.911,2,1.131,1.131,0,0,0,0-2.261,34.1,34.1,0,0,1-11.171-1.877A1.125,1.125,0,0,0,37.966,20.971Zm16.473,1.937a1.131,1.131,0,0,0,0,2.261h3.643a1.131,1.131,0,1,0,0-2.261ZM28.618,33.92a1.13,1.13,0,0,0-.269,2.2l2.155.718a2.261,2.261,0,1,0,3.856,1.6,2.223,2.223,0,0,0-.033-.327l.806.269a1.131,1.131,0,1,0,.715-2.146l-6.784-2.261A1.123,1.123,0,0,0,28.618,33.92Zm28.442,0a1.12,1.12,0,0,0-.446.055L49.83,36.237a1.13,1.13,0,1,0,.715,2.144l.806-.267a2.239,2.239,0,0,0-.033.327,2.261,2.261,0,1,0,3.856-1.6l2.155-.718a1.132,1.132,0,0,0-.269-2.2Z" transform="translate(-5.275)" fill="#ec421d"/></svg>