<svg xmlns="http://www.w3.org/2000/svg" width="72.333" height="70" viewBox="0 0 72.333 70"><path d="M40.5,0a1.164,1.164,0,0,0-1.062.684L28.341,25.1a5.831,5.831,0,0,0-4.174-1.768H4.333A2.338,2.338,0,0,0,2,25.667v42A2.338,2.338,0,0,0,4.333,70H24.167a5.813,5.813,0,0,0,5.109-3.076,1.071,1.071,0,0,0,.1.05,22.4,22.4,0,0,0,5.036.529c.374,0,.729-.009,1.044-.027l30.338-1.9a5.379,5.379,0,0,0,3.463-9.174c-.1-.1-.2-.191-.3-.278A5.853,5.853,0,0,0,72,51.005v-.839a5.813,5.813,0,0,0-1.837-4.243,6.22,6.22,0,0,0,1.29-11.12,6.2,6.2,0,0,0,2.88-5.25v-.387A5.839,5.839,0,0,0,68.5,23.333H45.495L48.79,10.145A8.165,8.165,0,0,0,40.865,0Zm.747,2.342a5.837,5.837,0,0,1,5.282,7.237L43.089,23.333H40.5a1.167,1.167,0,0,0,0,2.333h28a3.507,3.507,0,0,1,3.5,3.5v.387a3.866,3.866,0,0,1-3.245,3.828l-2.78.469a1.165,1.165,0,0,0,.191,2.315h1.951a3.884,3.884,0,0,1,.638,7.716l-2.78.469a1.165,1.165,0,0,0,.191,2.315,3.507,3.507,0,0,1,3.5,3.5v.839a3.5,3.5,0,0,1-2.812,3.432l-2.083.419A1.166,1.166,0,0,0,65,57.167h.456A3.05,3.05,0,0,1,68.5,60.211a3.05,3.05,0,0,1-2.853,3.04l-30.338,1.9a21.079,21.079,0,0,1-5.323-.424c-.014,0-.027,0-.041,0A5.355,5.355,0,0,0,30,64.167v-35a5.773,5.773,0,0,0-.255-1.618,1.023,1.023,0,0,0,.15-.232ZM4.333,25.667H24.167a3.507,3.507,0,0,1,3.5,3.5v35a3.507,3.507,0,0,1-3.5,3.5H4.333ZM7.833,28a1.167,1.167,0,0,0,0,2.333h2.333a1.167,1.167,0,1,0,0-2.333Zm0,5.833a1.167,1.167,0,1,0,0,2.333h2.333a1.167,1.167,0,1,0,0-2.333Zm0,5.833a1.167,1.167,0,1,0,0,2.333h2.333a1.167,1.167,0,1,0,0-2.333Zm0,5.833a1.167,1.167,0,0,0,0,2.333h2.333a1.167,1.167,0,0,0,0-2.333Zm0,5.833a1.167,1.167,0,1,0,0,2.333h2.333a1.167,1.167,0,1,0,0-2.333ZM19.5,56A3.5,3.5,0,1,0,23,59.5,3.507,3.507,0,0,0,19.5,56ZM7.833,57.167a1.167,1.167,0,1,0,0,2.333h2.333a1.167,1.167,0,1,0,0-2.333Zm11.667.779A1.554,1.554,0,1,1,17.946,59.5,1.556,1.556,0,0,1,19.5,57.946ZM7.833,63a1.167,1.167,0,0,0,0,2.333h2.333a1.167,1.167,0,0,0,0-2.333Z" transform="translate(-2)" fill="#ec421d"/></svg>