<svg xmlns="http://www.w3.org/2000/svg" width="74.659" height="70" viewBox="0 0 74.659 70"><path d="M30.748,0A7.41,7.41,0,0,0,25.5,12.651l9.279,9.279a1.986,1.986,0,0,0,2.784,0l9.265-9.274A7.415,7.415,0,0,0,36.344,2.169l-.178.182-.178-.182A7.367,7.367,0,0,0,30.748,0Zm0,2.333a5.062,5.062,0,0,1,3.591,1.486L34.517,4l-.355.355a1.165,1.165,0,1,0,1.645,1.65l.36-.355,1.827-1.832A5.079,5.079,0,0,1,45.176,11L36.171,20.02,27.157,11a5.077,5.077,0,0,1,3.591-8.668ZM50.276,21c-5.961,0-11.585,4.092-14.524,8.668C33.738,25.626,29.878,23.3,24.906,23.3h-.788a11.964,11.964,0,0,0-5.924,1.595c-3.049.164-5.214,2.406-5.555,5.8a18.815,18.815,0,0,0,.109,4.525c.036.283.077.633.073.711s-.014.118-.023.178l-.119.027a2.5,2.5,0,0,0-1.686,2.078,6.359,6.359,0,0,0,.15,2.826,4.967,4.967,0,0,0,2.347,3.327,18.751,18.751,0,0,0,2.192,4.43L2.661,57.221A5.813,5.813,0,0,0,0,62.12v4.6A3.276,3.276,0,0,0,3.272,70H71.294a3.277,3.277,0,0,0,3.277-3.277v-4.6a5.818,5.818,0,0,0-2.666-4.9L70.018,56a24.3,24.3,0,0,0,2.839-1.107,3.128,3.128,0,0,0,1.727-2.005,2.478,2.478,0,0,0-.374-2.019L72.757,47.9a43.6,43.6,0,0,1-3.008-8.112l-1.677-6.467A14.461,14.461,0,0,0,54.71,22.217,8.448,8.448,0,0,0,50.276,21Zm0,2.333a6.167,6.167,0,0,1,3.436,1.007,1.172,1.172,0,0,0,.6.191,12.027,12.027,0,0,1,11.5,9.374l1.677,6.467a45.929,45.929,0,0,0,3.172,8.554l1.495,3.049a1.156,1.156,0,0,0,.109.178c.073.1.059.146.05.178a.856.856,0,0,1-.479.46,30.9,30.9,0,0,1-4.37,1.563l-7.72-5A21.346,21.346,0,0,0,62.111,44.4a4.966,4.966,0,0,0,2.347-3.331,6.287,6.287,0,0,0,.146-2.825,2.544,2.544,0,0,0-1.591-2.055,6.254,6.254,0,0,0-.141-2.575,1.165,1.165,0,1,0-2.21.738,5.21,5.21,0,0,1,.014,1.777,9.92,9.92,0,0,0-.068,1.417,1.162,1.162,0,0,0,.674.957,1.207,1.207,0,0,0,.989.032,3.584,3.584,0,0,1-.068,1.932,3.3,3.3,0,0,1-1.012,1.8,1.163,1.163,0,0,0-1.121.834c-1.331,4.48-4.37,9.005-8.153,9.005-3.714,0-6.717-4.525-8.053-9.005a1.09,1.09,0,0,0-1.062-.829,2.924,2.924,0,0,1-1.071-1.809,3.682,3.682,0,0,1-.073-1.928,1.168,1.168,0,0,0,1.673-1,8.049,8.049,0,0,0-.05-.829,8.152,8.152,0,0,1,0-2.4,1.164,1.164,0,0,0-2.233-.661,7.477,7.477,0,0,0-.159,2.552,2.528,2.528,0,0,0-1.559,2.042,6.292,6.292,0,0,0,.146,2.825A4.963,4.963,0,0,0,41.822,44.4a22.012,22.012,0,0,0,1.964,4.334l-6.5,4.206-5.259-3.409a18.662,18.662,0,0,0,2.716-5.163,4.952,4.952,0,0,0,2.343-3.327,6.3,6.3,0,0,0,.15-2.826,2.5,2.5,0,0,0-1.682-2.078.824.824,0,0,0-.114-.023,12.129,12.129,0,0,0-.51-1.982c.128.041.26.087.378.137a1.169,1.169,0,0,0,1.586-1.326c-.027-.123-.064-.232-.091-.351C38.883,28.068,44.5,23.333,50.276,23.333ZM24.117,25.626h.788c4.448,0,7.711,2.178,9.183,6.043a1.9,1.9,0,0,0-1.221.5,1.926,1.926,0,0,0-.324,2.224,9.3,9.3,0,0,1,.693,3.122,1.185,1.185,0,0,0,.674.962,1.246,1.246,0,0,0,1,.027,3.633,3.633,0,0,1-.073,1.928,3.238,3.238,0,0,1-1.016,1.8,1.162,1.162,0,0,0-1.117.834,14.849,14.849,0,0,1-4.626,7.242,1.164,1.164,0,0,0,.725,2.078,1.137,1.137,0,0,0,.72-.251,11.5,11.5,0,0,0,.943-.838l4.676,3.021-2.051,1.331a1.165,1.165,0,1,0,1.267,1.955l10.76-6.954c1.764,2.21,4.051,3.792,6.8,3.792a8.644,8.644,0,0,0,6.412-3.227l12.3,7.966a3.475,3.475,0,0,1,1.6,2.935v4.607a.941.941,0,0,1-.943.939H3.272a.944.944,0,0,1-.939-.943v-4.6a3.483,3.483,0,0,1,1.6-2.939l13.221-8.554.8.816A1.167,1.167,0,0,0,19.615,49.8l-1.126-1.13a16.009,16.009,0,0,1-2.958-5.6,1.1,1.1,0,0,0-1.062-.83h0A2.907,2.907,0,0,1,13.4,40.432a3.6,3.6,0,0,1-.073-1.919,1.171,1.171,0,0,0,1.668-1,9.1,9.1,0,0,1,.132-1.18,4.841,4.841,0,0,0-.064-1.413,16.548,16.548,0,0,1-.1-4c.232-2.356,1.545-3.71,3.609-3.71a1.169,1.169,0,0,0,.7-.232A9.342,9.342,0,0,1,24.117,25.626Zm23.516,4.143a1.961,1.961,0,0,0-1.768.784l-1.24,1.363A1.162,1.162,0,0,0,44.7,33.56a1.177,1.177,0,0,0,1.654-.077l1.176-1.3.984.479a19.448,19.448,0,0,0,7.611,1.317,21.08,21.08,0,0,0,2.361-.123,1.168,1.168,0,0,0,1.03-1.29,1.183,1.183,0,0,0-1.294-1.03c-2.62.3-6.736-.023-8.686-.971l-1.244-.611A2,2,0,0,0,47.633,29.768ZM8.167,60.667A1.166,1.166,0,0,0,7,61.833v2.333a1.167,1.167,0,0,0,2.333,0V61.833A1.166,1.166,0,0,0,8.167,60.667Zm5.833,0a1.166,1.166,0,0,0-1.167,1.167v2.333a1.167,1.167,0,0,0,2.333,0V61.833A1.166,1.166,0,0,0,14,60.667Zm5.833,0a1.166,1.166,0,0,0-1.167,1.167v2.333a1.167,1.167,0,0,0,2.333,0V61.833A1.166,1.166,0,0,0,19.833,60.667Zm5.833,0A1.166,1.166,0,0,0,24.5,61.833v2.333a1.167,1.167,0,0,0,2.333,0V61.833A1.166,1.166,0,0,0,25.667,60.667Zm5.833,0a1.166,1.166,0,0,0-1.167,1.167v2.333a1.167,1.167,0,0,0,2.333,0V61.833A1.166,1.166,0,0,0,31.5,60.667Zm5.833,0a1.166,1.166,0,0,0-1.167,1.167v2.333a1.167,1.167,0,0,0,2.333,0V61.833A1.166,1.166,0,0,0,37.333,60.667Zm5.833,0A1.166,1.166,0,0,0,42,61.833v2.333a1.167,1.167,0,0,0,2.333,0V61.833A1.166,1.166,0,0,0,43.167,60.667Zm5.833,0a1.166,1.166,0,0,0-1.167,1.167v2.333a1.167,1.167,0,0,0,2.333,0V61.833A1.166,1.166,0,0,0,49,60.667Zm5.833,0a1.166,1.166,0,0,0-1.167,1.167v2.333a1.167,1.167,0,0,0,2.333,0V61.833A1.166,1.166,0,0,0,54.833,60.667Zm5.833,0A1.166,1.166,0,0,0,59.5,61.833v2.333a1.167,1.167,0,0,0,2.333,0V61.833A1.166,1.166,0,0,0,60.667,60.667Zm5.833,0a1.166,1.166,0,0,0-1.167,1.167v2.333a1.167,1.167,0,1,0,2.333,0V61.833A1.166,1.166,0,0,0,66.5,60.667Z" fill="#ec421d"/></svg>