<svg xmlns="http://www.w3.org/2000/svg" width="59.734" height="64.513" viewBox="0 0 59.734 64.513"><path d="M9.584,6A3.591,3.591,0,0,0,6,9.584v7.168a3.591,3.591,0,0,0,3.584,3.584c.037.322,5.843,43.27,5.843,43.27a3.58,3.58,0,0,0,1.325,6.907h38.23a3.58,3.58,0,0,0,1.325-6.907l2.721-20.664a1.179,1.179,0,0,0,.075-.565l2.954-22.041h.093a3.591,3.591,0,0,0,3.584-3.584V9.584A3.591,3.591,0,0,0,62.15,6Zm0,2.389H62.15a1.2,1.2,0,0,1,1.195,1.195v7.168a1.2,1.2,0,0,1-1.195,1.195H9.584a1.2,1.2,0,0,1-1.195-1.195V9.584A1.2,1.2,0,0,1,9.584,8.389Zm2.389,2.389a1.194,1.194,0,0,0-1.195,1.195v2.389a1.195,1.195,0,1,0,2.389,0V11.973A1.194,1.194,0,0,0,11.973,10.779Zm5.973,0a1.194,1.194,0,0,0-1.195,1.195v2.389a1.195,1.195,0,0,0,2.389,0V11.973A1.194,1.194,0,0,0,17.947,10.779Zm5.973,0a1.194,1.194,0,0,0-1.195,1.195v2.389a1.195,1.195,0,1,0,2.389,0V11.973A1.194,1.194,0,0,0,23.92,10.779Zm5.973,0A1.194,1.194,0,0,0,28.7,11.973v2.389a1.195,1.195,0,1,0,2.389,0V11.973A1.194,1.194,0,0,0,29.894,10.779Zm5.973,0a1.194,1.194,0,0,0-1.195,1.195v2.389a1.195,1.195,0,1,0,2.389,0V11.973A1.194,1.194,0,0,0,35.867,10.779Zm5.973,0a1.194,1.194,0,0,0-1.195,1.195v2.389a1.195,1.195,0,1,0,2.389,0V11.973A1.194,1.194,0,0,0,41.84,10.779Zm5.973,0a1.194,1.194,0,0,0-1.195,1.195v2.389a1.195,1.195,0,1,0,2.389,0V11.973A1.194,1.194,0,0,0,47.814,10.779Zm5.973,0a1.194,1.194,0,0,0-1.195,1.195v2.389a1.195,1.195,0,0,0,2.389,0V11.973A1.194,1.194,0,0,0,53.787,10.779Zm5.973,0a1.194,1.194,0,0,0-1.195,1.195v2.389a1.195,1.195,0,1,0,2.389,0V11.973A1.194,1.194,0,0,0,59.761,10.779ZM12.468,20.336h8.568L16.752,24.62Zm11.947,0H28.2l5.973,5.973L28.47,32.017a1.195,1.195,0,1,0,1.689,1.689L35.867,28l7.868,7.868-7.868,7.868-8.713-8.708-6.949-6.953a1.195,1.195,0,0,0-1.689,1.689l6.109,6.1-9.231,9.222L13.565,31.182Zm7.168,0h8.568L35.867,24.62Zm11.947,0h3.789L51.3,24.317a1.188,1.188,0,0,0,1.685,0,1.188,1.188,0,0,0,0-1.685l-2.291-2.3h8.568L45.424,34.178,37.556,26.31ZM12.6,23.85l2.459,2.459-1.89,1.885Zm46.527,0-.569,4.345-1.89-1.885ZM54.982,28l3.183,3.183-1.419,10.79L44.594,54.123s-.014,0-.019.014,0,.009-.009.014l-8.7,8.7L28,54.982l7.868-7.868,5.283,5.278a1.188,1.188,0,0,0,1.685,0,1.188,1.188,0,0,0,0-1.685l-5.278-5.283,7.868-7.868L51.566,43.7a1.195,1.195,0,1,0,1.689-1.689l-6.141-6.141ZM26.31,37.556l7.868,7.868L26.31,53.293l-6.1-6.1a1.193,1.193,0,0,0-1.689,1.685l6.1,6.1-7,7L15.791,48.075Zm29.923,8.3L54.114,61.982l-7-7ZM26.31,56.671l6.673,6.673H19.636Zm19.115,0L52.1,63.345H38.751ZM16.752,65.734H54.987a1.195,1.195,0,0,1,0,2.389H16.752a1.195,1.195,0,1,1,0-2.389Z" transform="translate(-6 -6)" fill="#ec421d"/></svg>