<svg xmlns="http://www.w3.org/2000/svg" width="54" height="54" viewBox="0 0 54 54"><circle cx="27" cy="27" r="27" opacity="0.45"/><path d="M14.7,19.6a.49.49,0,0,1-.347-.144L.144,5.248a.49.49,0,0,1,0-.693L2.1,2.594a.49.49,0,0,1,.693,0L14.7,14.5,26.61,2.594a.49.49,0,0,1,.693,0l1.96,1.96a.49.49,0,0,1,0,.693L15.05,19.461A.49.49,0,0,1,14.7,19.6Zm0-1.183L28.224,4.9,26.956,3.634,15.05,15.54a.49.49,0,0,1-.693,0L2.451,3.634,1.183,4.9Zm.038-6.308a.491.491,0,0,1-.49-.49v-.98a.49.49,0,0,1,.98,0v.98A.49.49,0,0,1,14.742,12.113Zm-2.158-1.775a.49.49,0,0,1-.347-.837l.695-.695a.49.49,0,0,1,.691.695l-.691.691A.489.489,0,0,1,12.584,10.338Zm4.239,0a.5.5,0,0,1-.348-.145L15.783,9.5a.488.488,0,0,1,0-.695.488.488,0,0,1,.691,0l.695.695a.491.491,0,0,1-.347.837ZM10.851,8.606a.486.486,0,0,1-.345-.144.488.488,0,0,1,0-.695l.691-.691a.49.49,0,0,1,.695.691l-.695.695A.487.487,0,0,1,10.851,8.606Zm7.7,0a.487.487,0,0,1-.347-.144l-.695-.695a.49.49,0,1,1,.695-.691l.691.691a.491.491,0,0,1-.345.839ZM9.119,6.871a.49.49,0,0,1-.347-.837l.693-.693a.491.491,0,0,1,.695.693l-.695.695A.488.488,0,0,1,9.119,6.871Zm11.169,0a.485.485,0,0,1-.347-.142l-.695-.695a.491.491,0,1,1,.695-.693l.693.693a.492.492,0,0,1,0,.695A.485.485,0,0,1,20.288,6.871ZM7.386,5.139A.49.49,0,0,1,7.04,4.3l.693-.693a.49.49,0,1,1,.693.693l-.693.693A.49.49,0,0,1,7.386,5.139Zm14.633,0a.486.486,0,0,1-.345-.144L20.981,4.3a.49.49,0,1,1,.693-.693l.693.693a.49.49,0,0,1-.348.837ZM5.654,3.408a.492.492,0,0,1-.347-.146.49.49,0,0,1,0-.693L6,1.876a.49.49,0,0,1,.693.693L6,3.262A.492.492,0,0,1,5.654,3.408Zm18.1,0a.49.49,0,0,1-.347-.144l-.693-.693a.49.49,0,0,1,.693-.693l.693.693a.49.49,0,0,1-.347.837ZM3.921,1.673A.49.49,0,0,1,3.574.837L4.267.144a.49.49,0,0,1,.693.693l-.693.693A.49.49,0,0,1,3.921,1.673Zm21.565,0a.49.49,0,0,1-.347-.144L24.446.837a.49.49,0,1,1,.693-.693l.693.693a.49.49,0,0,1-.347.837Z" transform="translate(36.802 12.623) rotate(90)" fill="#fff"/></svg>