<svg xmlns="http://www.w3.org/2000/svg" width="54" height="54" viewBox="0 0 54 54"><g transform="translate(-1798.793 -400.793)"><circle cx="27" cy="27" r="27" transform="translate(1798.793 400.793)" opacity="0.45"/><path d="M14.7,0a.49.49,0,0,0-.347.144L.144,14.357a.49.49,0,0,0,0,.693L2.1,17.01a.49.49,0,0,0,.693,0L14.7,5.1,26.61,17.01a.49.49,0,0,0,.693,0l1.96-1.96a.49.49,0,0,0,0-.693L15.05.144A.49.49,0,0,0,14.7,0Zm0,1.183L28.224,14.7l-1.267,1.267L15.05,4.065a.49.49,0,0,0-.693,0L2.451,15.971,1.183,14.7Zm.038,6.308a.491.491,0,0,0-.49.49v.98a.49.49,0,0,0,.98,0v-.98A.49.49,0,0,0,14.742,7.492ZM12.584,9.266a.49.49,0,0,0-.347.837l.695.695a.49.49,0,0,0,.691-.695l-.691-.691A.489.489,0,0,0,12.584,9.266Zm4.239,0a.5.5,0,0,0-.348.145l-.691.691a.488.488,0,0,0,0,.695.488.488,0,0,0,.691,0l.695-.695a.491.491,0,0,0-.347-.837ZM10.851,11a.486.486,0,0,0-.345.144.488.488,0,0,0,0,.695l.691.691a.49.49,0,0,0,.695-.691l-.695-.695A.487.487,0,0,0,10.851,11Zm7.7,0a.487.487,0,0,0-.347.144l-.695.695a.49.49,0,1,0,.695.691l.691-.691A.491.491,0,0,0,18.555,11ZM9.119,12.733a.49.49,0,0,0-.347.837l.693.693a.491.491,0,1,0,.695-.693l-.695-.695A.488.488,0,0,0,9.119,12.733Zm11.169,0a.485.485,0,0,0-.347.142l-.695.695a.491.491,0,1,0,.695.693l.693-.693a.492.492,0,0,0,0-.695A.485.485,0,0,0,20.288,12.733Zm-12.9,1.733a.49.49,0,0,0-.347.837L7.733,16a.49.49,0,0,0,.693-.693l-.693-.693A.49.49,0,0,0,7.386,14.466Zm14.633,0a.486.486,0,0,0-.345.144l-.693.693a.49.49,0,0,0,.693.693l.693-.693a.49.49,0,0,0-.348-.837ZM5.654,16.2a.492.492,0,0,0-.347.146.49.49,0,0,0,0,.693L6,17.728a.49.49,0,0,0,.693-.693L6,16.342A.492.492,0,0,0,5.654,16.2Zm18.1,0a.49.49,0,0,0-.347.144l-.693.693a.49.49,0,0,0,.693.693l.693-.693a.49.49,0,0,0-.347-.837ZM3.921,17.931a.49.49,0,0,0-.347.837l.693.693a.49.49,0,0,0,.693-.693l-.693-.693A.49.49,0,0,0,3.921,17.931Zm21.565,0a.49.49,0,0,0-.347.144l-.693.693a.49.49,0,1,0,.693.693l.693-.693a.49.49,0,0,0-.347-.837Z" transform="translate(1835.595 413.416) rotate(90)" fill="#fff"/></g></svg>