<svg xmlns="http://www.w3.org/2000/svg" xmlns:xlink="http://www.w3.org/1999/xlink" width="244" height="244" viewBox="0 0 244 244"><defs><linearGradient id="a" x1="0.5" x2="0.5" y2="1" gradientUnits="objectBoundingBox"><stop offset="0" stop-color="#ef69a8"/><stop offset="1" stop-color="#b33a8a"/></linearGradient></defs><g transform="translate(-8907.489 2136.511)"><g transform="translate(8927.489 -2116.511)" stroke="#fff" stroke-width="20" fill="url(#a)"><circle cx="102" cy="102" r="102" stroke="none"/><circle cx="102" cy="102" r="112" fill="none"/></g><path d="M57.1,3a9.154,9.154,0,0,0-1.831,18.124V26.9a34.661,34.661,0,0,0-23.081,10.46L21.08,27.636a9.043,9.043,0,0,0,1.23-4.5A9.155,9.155,0,1,0,13.155,32.3a9.061,9.061,0,0,0,5.514-1.9l11.115,9.724a34.6,34.6,0,0,0,.894,44.044L20.272,92.594a9.317,9.317,0,1,0,2.5,2.689l10.45-8.461a34.613,34.613,0,0,0,46.491,1.155l6.516,6.841A9.3,9.3,0,1,0,88.885,92.3l-6.53-6.855a34.593,34.593,0,0,0,.565-47.088l9.42-9.423a9.175,9.175,0,1,0-2.589-2.589l-9.42,9.423A34.6,34.6,0,0,0,58.93,26.9V21.124A9.154,9.154,0,0,0,57.1,3Zm0,3.662a5.493,5.493,0,1,1-5.493,5.493A5.5,5.5,0,0,1,57.1,6.662Zm40.282,9.155a5.493,5.493,0,1,1-5.493,5.493A5.5,5.5,0,0,1,97.382,15.817ZM13.155,17.648a5.493,5.493,0,1,1-5.493,5.493A5.5,5.5,0,0,1,13.155,17.648ZM57.1,30.465A31.127,31.127,0,1,1,25.972,61.592,31.162,31.162,0,0,1,57.1,30.465Zm0,5.493c-7.553,0-12.817,7.72-12.817,14.648A23.977,23.977,0,0,0,46.4,60.316l-4.889,3.362c-3.473,1.815-6.383,6.691-6.383,10.732V76.24A3.711,3.711,0,0,0,38.789,79.9h36.62a3.711,3.711,0,0,0,3.662-3.662V74.409c0-4.032-2.908-8.9-6.38-10.725L67.81,60.291a23.98,23.98,0,0,0,2.106-9.684C69.916,43.678,64.652,35.958,57.1,35.958Zm0,3.662c5.4,0,9.155,5.79,9.155,10.986,0,6.775-4,14.648-9.155,14.648s-9.155-7.873-9.155-14.648C47.944,45.41,51.7,39.62,57.1,39.62ZM66,63.491,70.7,66.76l.222.132c2.305,1.155,4.485,4.809,4.485,7.517V76.24H38.789V74.409c0-2.712,2.178-6.366,4.481-7.517l4.942-3.383c2.236,3.216,5.3,5.407,8.887,5.407S63.76,66.716,66,63.491ZM14.986,94.551a5.493,5.493,0,1,1-5.493,5.493A5.5,5.5,0,0,1,14.986,94.551Zm78.734,0a5.493,5.493,0,1,1-5.493,5.493A5.5,5.5,0,0,1,93.72,94.551Z" transform="translate(8974.474 -2071.409)" fill="#fff"/></g></svg>