<svg xmlns="http://www.w3.org/2000/svg" xmlns:xlink="http://www.w3.org/1999/xlink" width="244" height="244" viewBox="0 0 244 244"><defs><linearGradient id="a" x1="0.5" y1="1" x2="0.5" gradientUnits="objectBoundingBox"><stop offset="0" stop-color="#32bcbf"/><stop offset="1" stop-color="#0995ac"/></linearGradient></defs><g transform="translate(-7688.489 943.511)"><g transform="translate(7708.489 -923.511)" stroke="#fff" stroke-width="20" fill="url(#a)"><circle cx="102" cy="102" r="102" stroke="none"/><circle cx="102" cy="102" r="112" fill="none"/></g><path d="M13.733,4a4.733,4.733,0,0,0,0,9.466h5.1l3.7,14.008a23.486,23.486,0,0,0,10.8,14.316l3.3,1.96a1.585,1.585,0,0,1,.77,1.356v6.052a1.569,1.569,0,0,1-.739,1.337l-3.747,2.342A23.593,23.593,0,0,0,22.583,68.807L18.836,82.882h-5.1a4.733,4.733,0,0,0,0,9.466H79.994a4.733,4.733,0,1,0,0-9.466H74.9L71.163,68.788A23.556,23.556,0,0,0,60.674,54.7l-3.593-2.212a1.591,1.591,0,0,1-.752-1.344V45.352A1.577,1.577,0,0,1,57.094,44l3.426-2.071A23.535,23.535,0,0,0,71.169,27.683L74.9,13.466h5.1a4.733,4.733,0,1,0,0-9.466Zm0,3.155H79.994a1.578,1.578,0,0,1,0,3.155H13.733a1.578,1.578,0,1,1,0-3.155Zm8.357,6.311H71.637l-3.519,13.41a20.366,20.366,0,0,1-9.232,12.35L55.46,41.3a4.771,4.771,0,0,0-2.286,4.055v.555a29.845,29.845,0,0,1-12.621,0v-.8a4.759,4.759,0,0,0-2.317-4.073l-3.3-1.954a20.419,20.419,0,0,1-9.361-12.405l-1.812-6.9H53.174a1.578,1.578,0,1,0,0-3.155H23.2a1.981,1.981,0,0,0-.265.049Zm37.4,3.155a1.578,1.578,0,0,0,0,3.155H65.8a1.578,1.578,0,1,0,0-3.155ZM40.553,49.142a32.943,32.943,0,0,0,12.621,0v2a4.758,4.758,0,0,0,2.256,4.03l3.593,2.212A20.432,20.432,0,0,1,68.112,69.6L69.3,74.057a1.531,1.531,0,0,0-.345.937v3.155a1.577,1.577,0,0,0,1.578,1.578,1.67,1.67,0,0,0,.253-.049l.85,3.2H22.1l.857-3.2a1.743,1.743,0,0,0,.246.049,1.577,1.577,0,0,0,1.578-1.578V74.994a1.539,1.539,0,0,0-.327-.918l1.183-4.456a20.42,20.42,0,0,1,8.948-12.1l3.747-2.342a4.716,4.716,0,0,0,2.225-4.018ZM31.087,73.416a1.577,1.577,0,0,0-1.578,1.578v3.155a1.578,1.578,0,0,0,3.155,0V74.994A1.577,1.577,0,0,0,31.087,73.416Zm7.888,0A1.577,1.577,0,0,0,37.4,74.994v3.155a1.578,1.578,0,1,0,3.155,0V74.994A1.577,1.577,0,0,0,38.975,73.416Zm7.888,0a1.577,1.577,0,0,0-1.578,1.578v3.155a1.578,1.578,0,1,0,3.155,0V74.994A1.577,1.577,0,0,0,46.863,73.416Zm7.888,0a1.577,1.577,0,0,0-1.578,1.578v3.155a1.578,1.578,0,0,0,3.155,0V74.994A1.577,1.577,0,0,0,54.752,73.416Zm7.888,0a1.577,1.577,0,0,0-1.578,1.578v3.155a1.578,1.578,0,0,0,3.155,0V74.994A1.577,1.577,0,0,0,62.64,73.416ZM13.733,86.038H79.994a1.578,1.578,0,0,1,0,3.155H13.733a1.578,1.578,0,1,1,0-3.155Z" transform="translate(7763.289 -869.348)" fill="#fff"/></g></svg>