<svg xmlns="http://www.w3.org/2000/svg" xmlns:xlink="http://www.w3.org/1999/xlink" width="244" height="244" viewBox="0 0 244 244"><defs><linearGradient id="a" x1="0.5" y1="1" x2="0.5" gradientUnits="objectBoundingBox"><stop offset="0" stop-color="#7b64ac"/><stop offset="1" stop-color="#504891"/></linearGradient></defs><g transform="translate(-8733.489 1147.511)"><g transform="translate(8753.489 -1127.511)" stroke="#fff" stroke-width="20" fill="url(#a)"><circle cx="102" cy="102" r="102" stroke="none"/><circle cx="102" cy="102" r="112" fill="none"/></g><path d="M9.4,6A3.4,3.4,0,0,0,6,9.4V90.95a3.4,3.4,0,0,0,3.4,3.4H90.95a3.4,3.4,0,0,0,3.4-3.4V9.4A3.4,3.4,0,0,0,90.95,6Zm0,3.4H90.95l0,81.552H9.4ZM19.592,19.592a3.4,3.4,0,0,0-3.4,3.4V36.582a3.4,3.4,0,0,0,3.4,3.4H33.184a3.4,3.4,0,0,0,3.4-3.4V31.624a1.7,1.7,0,1,0-3.4,0v4.958H19.592V22.99H29.786a1.7,1.7,0,0,0,0-3.4Zm17.84.85a1.693,1.693,0,0,0-1.2.5l-9.842,9.842-2.2-2.2a1.7,1.7,0,1,0-2.4,2.4l3.4,3.4a1.7,1.7,0,0,0,2.4,0L38.633,23.342a1.7,1.7,0,0,0-1.2-2.9Zm7.646,2.549a1.7,1.7,0,0,0,0,3.4H82.455a1.7,1.7,0,0,0,0-3.4Zm0,6.8a1.7,1.7,0,0,0,0,3.4H72.261a1.7,1.7,0,1,0,0-3.4ZM19.592,50.174a3.4,3.4,0,0,0-3.4,3.4V67.164a3.4,3.4,0,0,0,3.4,3.4H33.184a3.4,3.4,0,0,0,3.4-3.4V62.206a1.7,1.7,0,0,0-3.4,0v4.958H19.592V53.572H29.786a1.7,1.7,0,1,0,0-3.4Zm17.84.849a1.693,1.693,0,0,0-1.2.5l-9.842,9.842-2.2-2.2a1.7,1.7,0,0,0-2.4,2.4l3.4,3.4a1.7,1.7,0,0,0,2.4,0L38.633,53.924a1.7,1.7,0,0,0-1.2-2.9Zm7.646,2.549a1.7,1.7,0,0,0,0,3.4h16.99a1.7,1.7,0,1,0,0-3.4Zm23.786,0a1.7,1.7,0,0,0,0,3.4H82.455a1.7,1.7,0,0,0,0-3.4Zm-23.786,6.8a1.7,1.7,0,0,0,0,3.4H58.669a1.7,1.7,0,1,0,0-3.4ZM16.194,80.756a1.7,1.7,0,0,0-1.7,1.7v3.4a1.7,1.7,0,0,0,3.4,0v-3.4A1.7,1.7,0,0,0,16.194,80.756Zm8.5,0a1.7,1.7,0,0,0-1.7,1.7v3.4a1.7,1.7,0,0,0,3.4,0v-3.4A1.7,1.7,0,0,0,24.689,80.756Zm8.5,0a1.7,1.7,0,0,0-1.7,1.7v3.4a1.7,1.7,0,0,0,3.4,0v-3.4A1.7,1.7,0,0,0,33.184,80.756Zm8.5,0a1.7,1.7,0,0,0-1.7,1.7v3.4a1.7,1.7,0,0,0,3.4,0v-3.4A1.7,1.7,0,0,0,41.679,80.756Zm8.5,0a1.7,1.7,0,0,0-1.7,1.7v3.4a1.7,1.7,0,0,0,3.4,0v-3.4A1.7,1.7,0,0,0,50.174,80.756Zm8.5,0a1.7,1.7,0,0,0-1.7,1.7v3.4a1.7,1.7,0,0,0,3.4,0v-3.4A1.7,1.7,0,0,0,58.669,80.756Zm8.5,0a1.7,1.7,0,0,0-1.7,1.7v3.4a1.7,1.7,0,0,0,3.4,0v-3.4A1.7,1.7,0,0,0,67.164,80.756Zm8.5,0a1.7,1.7,0,0,0-1.7,1.7v3.4a1.7,1.7,0,0,0,3.4,0v-3.4A1.7,1.7,0,0,0,75.659,80.756Zm8.5,0a1.7,1.7,0,0,0-1.7,1.7v3.4a1.7,1.7,0,0,0,3.4,0v-3.4A1.7,1.7,0,0,0,84.154,80.756Z" transform="translate(8808.413 -1074.796)" fill="#fff" opacity="0.8"/></g></svg>