<svg xmlns="http://www.w3.org/2000/svg" xmlns:xlink="http://www.w3.org/1999/xlink" width="244" height="244" viewBox="0 0 244 244"><defs><linearGradient id="a" x1="0.5" x2="0.5" y2="1" gradientUnits="objectBoundingBox"><stop offset="0" stop-color="#f8aa14"/><stop offset="1" stop-color="#f4801d"/></linearGradient></defs><g transform="translate(-7709.489 2046.511)"><g transform="translate(7729.489 -2026.511)" stroke="#fff" stroke-width="20" fill="url(#a)"><circle cx="102" cy="102" r="102" stroke="none"/><circle cx="102" cy="102" r="112" fill="none"/></g><path d="M8.733,8A4.742,4.742,0,0,0,4,12.733V78.994a4.742,4.742,0,0,0,4.733,4.733H87.615a4.742,4.742,0,0,0,4.733-4.733V12.733A4.742,4.742,0,0,0,87.615,8Zm0,3.155H87.615a1.581,1.581,0,0,1,1.578,1.578V64.8H79.727V44.286a1.573,1.573,0,0,0-1.578-1.578H68.683a1.573,1.573,0,0,0-1.578,1.578v7.888H60.8V50.6a1.573,1.573,0,0,0-1.578-1.578H49.752A1.573,1.573,0,0,0,48.174,50.6v4.733H30.82a1.573,1.573,0,0,0-1.578,1.578v1.578H21.354a1.573,1.573,0,0,0-1.578,1.578V64.8H7.155V12.733A1.581,1.581,0,0,1,8.733,11.155Zm59.186,6.311a1.578,1.578,0,1,0,0,3.155h6.687l-8.843,9.83a4.626,4.626,0,0,0-4.209.314l-2.644-2.2a4.66,4.66,0,0,0,.308-1.633,4.733,4.733,0,1,0-8.745,2.49L44.729,36.6a4.435,4.435,0,0,0-3.685.475l-2.644-2.2a4.66,4.66,0,0,0,.308-1.633,4.733,4.733,0,1,0-9.466,0,4.583,4.583,0,0,0,.345,1.744l-5.941,5.183a4.733,4.733,0,1,0,2.1,2.366l5.928-5.183a4.72,4.72,0,0,0,2.3.622,4.662,4.662,0,0,0,2.4-.678l2.644,2.2a4.66,4.66,0,0,0-.308,1.633,4.733,4.733,0,0,0,9.466,0,4.686,4.686,0,0,0-.863-2.712l5.627-7.032a4.774,4.774,0,0,0,1.547.277,4.7,4.7,0,0,0,2.4-.678l2.638,2.2a4.66,4.66,0,0,0-.308,1.633,4.733,4.733,0,1,0,8.874-2.243l8.48-9.423v6.12a1.578,1.578,0,1,0,3.155,0V19.044c0-.012-.006-.025-.006-.043a2.109,2.109,0,0,0-.068-.333,1.85,1.85,0,0,0-.068-.265,1.462,1.462,0,0,0-.136-.2,1.548,1.548,0,0,0-.222-.3c-.012-.012-.012-.025-.018-.037a1.542,1.542,0,0,0-.2-.1,1.529,1.529,0,0,0-.3-.185,1.224,1.224,0,0,0-.333-.062,1.487,1.487,0,0,0-.228-.049ZM54.485,25.354a1.578,1.578,0,1,1-1.578,1.578A1.581,1.581,0,0,1,54.485,25.354ZM33.975,31.665A1.578,1.578,0,1,1,32.4,33.242,1.581,1.581,0,0,1,33.975,31.665Zm29.975,1.578a1.578,1.578,0,1,1-1.578,1.578A1.581,1.581,0,0,1,63.951,33.242ZM43.441,39.553a1.578,1.578,0,1,1-1.578,1.578A1.581,1.581,0,0,1,43.441,39.553ZM21.354,42.708a1.578,1.578,0,1,1-1.578,1.578A1.581,1.581,0,0,1,21.354,42.708Zm48.907,3.155h6.311V64.8H70.261ZM51.329,52.174H57.64V64.8H51.329ZM60.8,55.329h6.311V64.8H60.8ZM32.4,58.485h6.311V64.8H32.4Zm9.466,0h6.311V64.8H41.863ZM22.932,61.64h6.311V64.8H22.932ZM7.155,67.951H89.193V78.994a1.581,1.581,0,0,1-1.578,1.578H8.733a1.581,1.581,0,0,1-1.578-1.578Zm6.311,3.155a1.573,1.573,0,0,0-1.578,1.578v3.155a1.578,1.578,0,0,0,3.155,0V72.683A1.573,1.573,0,0,0,13.466,71.106Zm7.888,0a1.573,1.573,0,0,0-1.578,1.578v3.155a1.578,1.578,0,0,0,3.155,0V72.683A1.573,1.573,0,0,0,21.354,71.106Zm7.888,0a1.573,1.573,0,0,0-1.578,1.578v3.155a1.578,1.578,0,0,0,3.155,0V72.683A1.573,1.573,0,0,0,29.242,71.106Zm7.888,0a1.573,1.573,0,0,0-1.578,1.578v3.155a1.578,1.578,0,0,0,3.155,0V72.683A1.573,1.573,0,0,0,37.131,71.106Zm7.888,0a1.573,1.573,0,0,0-1.578,1.578v3.155a1.578,1.578,0,0,0,3.155,0V72.683A1.573,1.573,0,0,0,45.019,71.106Zm7.888,0a1.573,1.573,0,0,0-1.578,1.578v3.155a1.578,1.578,0,0,0,3.155,0V72.683A1.573,1.573,0,0,0,52.907,71.106Zm7.888,0a1.573,1.573,0,0,0-1.578,1.578v3.155a1.578,1.578,0,0,0,3.155,0V72.683A1.573,1.573,0,0,0,60.8,71.106Zm7.888,0a1.573,1.573,0,0,0-1.578,1.578v3.155a1.578,1.578,0,0,0,3.155,0V72.683A1.573,1.573,0,0,0,68.683,71.106Zm7.888,0a1.573,1.573,0,0,0-1.578,1.578v3.155a1.578,1.578,0,0,0,3.155,0V72.683A1.573,1.573,0,0,0,76.572,71.106Zm7.888,0a1.573,1.573,0,0,0-1.578,1.578v3.155a1.578,1.578,0,0,0,3.155,0V72.683A1.573,1.573,0,0,0,84.46,71.106Z" transform="translate(7782.979 -1970.711)" fill="#fff"/></g></svg>