<svg xmlns="http://www.w3.org/2000/svg" width="69.998" height="70" viewBox="0 0 69.998 70"><path d="M35.912.914a3.447,3.447,0,0,0-2.2.772L28.387,6a1.146,1.146,0,0,1-.913.245L20.7,5.167a3.512,3.512,0,0,0-3.8,2.2l-2.458,6.4a1.153,1.153,0,0,1-.668.668L7.367,16.9a3.512,3.512,0,0,0-2.2,3.8l1.077,6.775A1.168,1.168,0,0,1,6,28.387L1.687,33.713a3.506,3.506,0,0,0,0,4.394L6,43.437a1.142,1.142,0,0,1,.245.913L5.167,51.125a3.512,3.512,0,0,0,2.2,3.8l6.4,2.454a1.173,1.173,0,0,1,.668.673l2.458,6.4a3.5,3.5,0,0,0,3.8,2.2l6.775-1.072a1.168,1.168,0,0,1,.913.245l5.326,4.312a3.495,3.495,0,0,0,4.394,0l5.33-4.312a1.166,1.166,0,0,1,.913-.25l6.775,1.077a3.51,3.51,0,0,0,3.8-2.2l2.454-6.4a1.186,1.186,0,0,1,.673-.668l6.4-2.454a3.507,3.507,0,0,0,2.2-3.8L65.58,44.35a1.168,1.168,0,0,1,.245-.913l4.312-5.326a3.513,3.513,0,0,0,0-4.4l-4.312-5.326a1.147,1.147,0,0,1-.245-.913L66.652,20.7a3.507,3.507,0,0,0-2.2-3.8l-6.4-2.458a1.153,1.153,0,0,1-.668-.668l-2.458-6.4a3.517,3.517,0,0,0-3.8-2.2L44.35,6.244A1.168,1.168,0,0,1,43.437,6L38.111,1.687A3.482,3.482,0,0,0,35.912.914Zm0,2.322a1.152,1.152,0,0,1,.732.259l5.33,4.317a3.508,3.508,0,0,0,2.74.736l6.775-1.077a1.17,1.17,0,0,1,1.268.732l2.458,6.4a3.47,3.47,0,0,0,2,2l6.4,2.458a1.167,1.167,0,0,1,.732,1.268L63.28,27.11a3.5,3.5,0,0,0,.732,2.74l4.317,5.33a1.163,1.163,0,0,1,0,1.463l-4.317,5.33a3.5,3.5,0,0,0-.732,2.74l1.072,6.775a1.167,1.167,0,0,1-.732,1.268l-6.4,2.458a3.47,3.47,0,0,0-2,2l-2.458,6.4a1.167,1.167,0,0,1-1.268.732L44.714,63.28a3.505,3.505,0,0,0-2.74.732l-5.33,4.317a1.163,1.163,0,0,1-1.463,0l-5.33-4.317a3.5,3.5,0,0,0-2.2-.777,3.07,3.07,0,0,0-.541.045l-6.775,1.072a1.17,1.17,0,0,1-1.268-.732l-2.149-5.607h.3a5.774,5.774,0,0,0,4.462-2.136,1.17,1.17,0,0,0,.418.209,14.234,14.234,0,0,0,3.285.35c.25,0,.486,0,.7-.018l19.153-1.2A3.823,3.823,0,0,0,47.89,48.9a4.125,4.125,0,0,0,1.672-3.308v-.532a4.078,4.078,0,0,0-.872-2.522,4.355,4.355,0,0,0,.818-7.175,4.36,4.36,0,0,0,1.527-3.322V31.8a4.051,4.051,0,0,0-4.108-4.035H32.945l1.949-7.875a5.588,5.588,0,0,0-5.416-6.939h-.236a1.161,1.161,0,0,0-1.059.686L21.1,29.209a5.7,5.7,0,0,0-3.881-1.44H8.575a4.541,4.541,0,0,0-.032-.659L7.471,20.335A1.167,1.167,0,0,1,8.2,19.067l6.4-2.458a3.471,3.471,0,0,0,2-2l2.458-6.4a1.175,1.175,0,0,1,1.268-.732L27.11,8.543a3.5,3.5,0,0,0,2.74-.732L35.18,3.5A1.161,1.161,0,0,1,35.912,3.236Zm5.857,9.052a1.162,1.162,0,0,0-.959.85l-.6,2.249a1.165,1.165,0,0,0,2.249.6l.6-2.249a1.156,1.156,0,0,0-.818-1.422A1.1,1.1,0,0,0,41.769,12.288ZM47.69,14.61a1.154,1.154,0,0,0-1.15.573L45.377,17.2a1.161,1.161,0,1,0,2.008,1.163l1.163-2.013a1.161,1.161,0,0,0-.423-1.59A1.126,1.126,0,0,0,47.69,14.61Zm-17.717.709a3.259,3.259,0,0,1,2.663,4.012l-2.09,8.361h-1.3a1.163,1.163,0,0,0,0,2.327H46.927A1.785,1.785,0,0,1,48.708,31.8v.241a2.017,2.017,0,0,1-1.69,2l-1.759.291a1.164,1.164,0,0,0,.2,2.313h1.231a2.027,2.027,0,0,1,.332,4.026l-1.759.3a1.162,1.162,0,0,0,.2,2.308,1.784,1.784,0,0,1,1.781,1.781v.536A1.793,1.793,0,0,1,45.8,47.344l-1.313.259a1.163,1.163,0,0,0,.227,2.3H45a1.507,1.507,0,0,1,1.059.436A1.481,1.481,0,0,1,46.5,51.4a1.5,1.5,0,0,1-1.4,1.5l-19.157,1.2a12.6,12.6,0,0,1-3.167-.241,5.861,5.861,0,0,0,.268-1.654V33.508a5.791,5.791,0,0,0-.459-2.267,1.144,1.144,0,0,0,.354-.432ZM52.361,18.3a1.134,1.134,0,0,0-.818.341l-1.649,1.64a1.168,1.168,0,0,0,0,1.65,1.18,1.18,0,0,0,1.649,0l1.64-1.65a1.149,1.149,0,0,0,0-1.64A1.137,1.137,0,0,0,52.361,18.3Zm3.558,4.826a1.13,1.13,0,0,0-.441.15l-2.013,1.163a1.161,1.161,0,0,0,.582,2.167,1.134,1.134,0,0,0,.582-.159l2.013-1.163a1.161,1.161,0,0,0-.723-2.158Zm2.626,5.607a1.131,1.131,0,0,0-.459.036l-2.249.6a1.165,1.165,0,0,0,.3,2.29,1.137,1.137,0,0,0,.3-.041l2.249-.6a1.167,1.167,0,0,0-.141-2.281ZM7.73,29.95a1.018,1.018,0,0,0,.309.068h9.188a3.494,3.494,0,0,1,3.49,3.49V52.2a3.5,3.5,0,0,1-3.49,3.49h-1.6a.987.987,0,0,0-.159.032,3.287,3.287,0,0,0-.863-.5L8.2,52.756a1.173,1.173,0,0,1-.732-1.268l1.077-6.775a3.513,3.513,0,0,0-.736-2.745L3.5,36.643a1.163,1.163,0,0,1,0-1.463Zm49.12,4.8a1.163,1.163,0,0,0,0,2.327h2.327a1.163,1.163,0,1,0,0-2.327Z" transform="translate(-0.913 -0.914)" fill="#ec421d"/></svg>