<svg xmlns="http://www.w3.org/2000/svg" width="70" height="70" viewBox="0 0 70 70"><path d="M19.259,5A3.89,3.89,0,0,0,15.37,8.889v3.889H8.889A3.89,3.89,0,0,0,5,16.667V71.111A3.89,3.89,0,0,0,8.889,75H71.111A3.89,3.89,0,0,0,75,71.111V16.667a3.89,3.89,0,0,0-3.889-3.889H64.63V8.889a3.889,3.889,0,0,0-7.778,0v3.889H43.889V8.889a3.889,3.889,0,1,0-7.778,0v3.889H23.148V8.889A3.89,3.89,0,0,0,19.259,5Zm0,2.593a1.3,1.3,0,0,1,1.3,1.3v10.37a1.3,1.3,0,1,1-2.593,0V8.889A1.3,1.3,0,0,1,19.259,7.593ZM40,7.593a1.3,1.3,0,0,1,1.3,1.3v10.37a1.3,1.3,0,1,1-2.593,0V8.889A1.3,1.3,0,0,1,40,7.593Zm20.741,0a1.3,1.3,0,0,1,1.3,1.3v10.37a1.3,1.3,0,1,1-2.593,0V8.889A1.3,1.3,0,0,1,60.741,7.593ZM8.889,15.37H15.37v3.889a3.889,3.889,0,0,0,7.778,0V15.37H36.111v3.889a3.889,3.889,0,1,0,7.778,0V15.37H56.852v3.889a3.889,3.889,0,1,0,7.778,0V15.37h6.481a1.3,1.3,0,0,1,1.3,1.3v9.074a1.3,1.3,0,0,0-1.3,1.3V29.63a1.3,1.3,0,0,0,1.3,1.3V71.111a1.3,1.3,0,0,1-1.3,1.3H8.889a1.3,1.3,0,0,1-1.3-1.3V30.926a1.3,1.3,0,0,0,1.3-1.3V27.037a1.3,1.3,0,0,0-1.3-1.3V16.667A1.3,1.3,0,0,1,8.889,15.37Zm5.185,10.37a1.3,1.3,0,0,0-1.3,1.3V29.63a1.3,1.3,0,1,0,2.593,0V27.037A1.3,1.3,0,0,0,14.074,25.741Zm6.481,0a1.3,1.3,0,0,0-1.3,1.3V29.63a1.3,1.3,0,1,0,2.593,0V27.037A1.3,1.3,0,0,0,20.556,25.741Zm6.481,0a1.3,1.3,0,0,0-1.3,1.3V29.63a1.3,1.3,0,1,0,2.593,0V27.037A1.3,1.3,0,0,0,27.037,25.741Zm6.481,0a1.3,1.3,0,0,0-1.3,1.3V29.63a1.3,1.3,0,1,0,2.593,0V27.037A1.3,1.3,0,0,0,33.519,25.741Zm6.481,0a1.3,1.3,0,0,0-1.3,1.3V29.63a1.3,1.3,0,1,0,2.593,0V27.037A1.3,1.3,0,0,0,40,25.741Zm6.481,0a1.3,1.3,0,0,0-1.3,1.3V29.63a1.3,1.3,0,1,0,2.593,0V27.037A1.3,1.3,0,0,0,46.481,25.741Zm6.481,0a1.3,1.3,0,0,0-1.3,1.3V29.63a1.3,1.3,0,1,0,2.593,0V27.037A1.3,1.3,0,0,0,52.963,25.741Zm6.481,0a1.3,1.3,0,0,0-1.3,1.3V29.63a1.3,1.3,0,1,0,2.593,0V27.037A1.3,1.3,0,0,0,59.444,25.741Zm6.481,0a1.3,1.3,0,0,0-1.3,1.3V29.63a1.3,1.3,0,1,0,2.593,0V27.037A1.3,1.3,0,0,0,65.926,25.741ZM16.667,34.815a1.3,1.3,0,0,0-1.3,1.3V59.444a1.3,1.3,0,0,0,1.3,1.3H63.333a1.3,1.3,0,0,0,1.3-1.3V36.111a1.3,1.3,0,0,0-1.3-1.3Zm1.3,2.593h9.074v9.074H17.963Zm11.667,0H38.7v9.074H29.63Zm11.667,0H50.37v9.074H41.3Zm11.667,0h9.074v9.074H52.963Zm-35,11.667h9.074v9.074H17.963Zm11.667,0H38.7v9.074H29.63Zm11.667,0H50.37v9.074H41.3Zm11.667,0h9.074v9.074H52.963ZM11.481,64.63a1.3,1.3,0,1,0,0,2.593H68.519a1.3,1.3,0,1,0,0-2.593Z" transform="translate(-5 -5)" fill="#ec421d"/></svg>