<svg xmlns="http://www.w3.org/2000/svg" width="70.036" height="70" viewBox="0 0 70.036 70"><path d="M35.717,2.008A13.034,13.034,0,0,0,26.5,24.264L44.125,41.887a2.7,2.7,0,0,0,3.812,0l17.61-17.623A13.042,13.042,0,1,0,47.1,5.82L46.022,6.9,44.941,5.82A13,13,0,0,0,35.717,2.008Zm20.61,2.33A10.7,10.7,0,0,1,63.9,22.609L46.282,40.241a.316.316,0,0,1-.506,0L28.148,22.609A10.7,10.7,0,0,1,43.286,7.471l1.09,1.085-.255.251a1.166,1.166,0,1,0,1.646,1.651l.255-.255,2.736-2.731A10.663,10.663,0,0,1,56.327,4.338ZM42.205,11.2a1.168,1.168,0,0,0-.825.342l-1.933,1.933A1.167,1.167,0,1,0,41.1,15.127l1.933-1.933a1.167,1.167,0,0,0-.825-1.993ZM23.023,40.9a14.99,14.99,0,0,0-2.12.1L7.091,42.617A3.509,3.509,0,0,0,4,46.1V60.874a3.5,3.5,0,0,0,4.35,3.4l7.66-1.911a8.185,8.185,0,0,1,5.791.7L36.492,70.8a10.522,10.522,0,0,0,9.73.032L71.086,57.933A5.466,5.466,0,0,0,67.2,47.788L51.548,51.846A5.828,5.828,0,0,0,45.6,47.888l-2.558.182a5.812,5.812,0,0,1-2.909-.543L29.151,42.343A15.173,15.173,0,0,0,23.023,40.9Zm-.055,2.335a12.731,12.731,0,0,1,5.184,1.222l10.989,5.184a8.188,8.188,0,0,0,4.072.761l2.558-.182a3.5,3.5,0,0,1,3.753,3.488v.474a1.167,1.167,0,0,1-.688,1.067l-3.447,1.546a10.55,10.55,0,0,1-8.207.173l-5.887-2.357a1.166,1.166,0,1,0-.866,2.166l5.887,2.362a12.906,12.906,0,0,0,10.036-.214l3.443-1.546a3.512,3.512,0,0,0,2.065-3.2l15.927-4.136a3.133,3.133,0,0,1,2.23,5.813L45.146,68.753a8.177,8.177,0,0,1-7.569-.023L22.886,60.992a10.465,10.465,0,0,0-7.437-.9L7.785,62.009a1.138,1.138,0,0,1-1-.21,1.164,1.164,0,0,1-.451-.926V46.1a1.169,1.169,0,0,1,1.03-1.163l13.811-1.623A13.1,13.1,0,0,1,22.968,43.232ZM9.836,46.356a1.167,1.167,0,0,0,0,2.335h2.335a1.167,1.167,0,0,0,0-2.335Zm0,5.836a1.167,1.167,0,0,0,0,2.335h2.335a1.167,1.167,0,0,0,0-2.335Zm0,5.836a1.167,1.167,0,0,0,0,2.335h2.335a1.167,1.167,0,0,0,0-2.335Z" transform="translate(-4 -2.004)" fill="#ec421d"/></svg>