<svg xmlns="http://www.w3.org/2000/svg" width="59.394" height="70" viewBox="0 0 59.394 70"><path d="M53.475,0c-2.73,0-4.949,2.532-4.949,5.645a1,1,0,1,0,1.98,0,3.205,3.205,0,0,1,2.97-3.387h2.97a3.205,3.205,0,0,1,2.97,3.387v.944a3.81,3.81,0,0,1-2.293,3.63,6.062,6.062,0,0,0-3.646,5.769v.948a1,1,0,1,0,1.98,0v-.948a3.809,3.809,0,0,1,2.293-3.625,6.064,6.064,0,0,0,3.646-5.773V5.645C61.394,2.532,59.174,0,56.444,0ZM31.7,4.516a13.155,13.155,0,0,0-7.239,2.267c-3.681.15-6.2,3.109-6.62,7.784a29.43,29.43,0,0,0,.139,6.32,9.75,9.75,0,0,1,.089,1.173l-.089.644a1.3,1.3,0,0,0-.425.071c-1.643.494-2.328,3.215-1.6,6.333.537,2.245,1.647,3.938,2.861,4.459a28.086,28.086,0,0,0,2.506,5.985L8.187,46.718A12.747,12.747,0,0,0,2,57.92v8.693A3.211,3.211,0,0,0,4.97,70H58.424a3.211,3.211,0,0,0,2.97-3.387V57.92a12.747,12.747,0,0,0-6.187-11.2L42.071,39.551a27.721,27.721,0,0,0,2.513-5.985c1.206-.52,2.316-2.214,2.854-4.459.731-3.118.046-5.839-1.6-6.333a1.27,1.27,0,0,0-.425-.071,18.677,18.677,0,0,0-.913-3.881.7.7,0,0,0-.027-.124,5,5,0,0,1,1.365.406.9.9,0,0,0,.367.088,1.075,1.075,0,0,0,1.017-1.129,1.154,1.154,0,0,0-.089-.463C45.5,9.4,40.1,4.516,32.687,4.516Zm0,2.258h.99c6.009,0,10.355,3.5,12.126,9.7a3.177,3.177,0,0,0-.456-.031,1.768,1.768,0,0,0-1.62.834,2.76,2.76,0,0,0-.081,2.324,15.649,15.649,0,0,1,.889,4.6,1.191,1.191,0,0,0,.537.961.885.885,0,0,0,.99-.071.75.75,0,0,1,.267-.137c.236.079.681,1.46.186,3.572a6.617,6.617,0,0,1-.94,2.258c-.325.472-.634.7-.781.7a1.02,1.02,0,0,0-.951.812,25.688,25.688,0,0,1-2.564,6.293,16.382,16.382,0,0,1-1.2,1.852c-2.018,2.8-4.594,4.728-7.393,4.728S26.322,43.23,24.3,40.433a16.369,16.369,0,0,1-1.2-1.852,25.274,25.274,0,0,1-2.575-6.293,1,1,0,0,0-.94-.812c-.3,0-1.226-.878-1.721-2.955-.495-2.113-.05-3.493.178-3.572a.807.807,0,0,1,.275.137.885.885,0,0,0,.99.071,1.191,1.191,0,0,0,.538-.961,14.245,14.245,0,0,1,.166-1.738,7.424,7.424,0,0,0-.077-1.852,27.211,27.211,0,0,1-.12-5.817c.305-3.6,2.169-5.755,4.969-5.755a.953.953,0,0,0,.6-.225A10.842,10.842,0,0,1,31.7,6.774ZM26.279,13.69A1.9,1.9,0,0,0,24.454,14.7l-1.589,2.748a1.231,1.231,0,0,0,.282,1.566.889.889,0,0,0,.541.185.965.965,0,0,0,.831-.507l1.585-2.748,1.547.86a18.829,18.829,0,0,0,9.106,2.395h2.529a1.139,1.139,0,0,0,0-2.258H36.759a16.98,16.98,0,0,1-8.236-2.17l-1.547-.86A1.782,1.782,0,0,0,26.279,13.69Zm28.185,6.633a2.131,2.131,0,0,0-1.98,2.258,2,2,0,1,0,3.96,0A2.131,2.131,0,0,0,54.465,20.323ZM22.49,41.421c2.424,3.515,5.653,6,9.207,6s6.782-2.483,9.207-6l13.441,7.33a10.418,10.418,0,0,1,5.069,9.169v8.693a1.068,1.068,0,0,1-.99,1.129H4.97a1.068,1.068,0,0,1-.99-1.129V57.92a10.423,10.423,0,0,1,5.065-9.169Zm2.834,6.188a1.619,1.619,0,0,0-1.547,1.685v5.283A1.561,1.561,0,0,0,25.669,56.2l4.667-1.522a4.353,4.353,0,0,1,2.722,0L37.725,56.2a1.332,1.332,0,0,0,1.446-.423,1.8,1.8,0,0,0,.445-1.2V49.294a1.56,1.56,0,0,0-1.891-1.627l-4.667,1.521a4.352,4.352,0,0,1-2.722,0l-4.667-1.521A1.15,1.15,0,0,0,25.324,47.609Zm.433,2.434,4.037,1.314a6.1,6.1,0,0,0,3.8,0l4.037-1.31v3.775L33.6,52.513a6.017,6.017,0,0,0-3.8,0l-4.037,1.31ZM31.7,56.452a1.068,1.068,0,0,0-.99,1.129v6.774a1,1,0,1,0,1.98,0V57.581A1.068,1.068,0,0,0,31.7,56.452ZM6.949,60.968A1.068,1.068,0,0,0,5.96,62.1v2.258a1.068,1.068,0,0,0,.99,1.129,1.068,1.068,0,0,0,.99-1.129V62.1A1.068,1.068,0,0,0,6.949,60.968Zm4.949,0a1.068,1.068,0,0,0-.99,1.129v2.258a1.068,1.068,0,0,0,.99,1.129,1.068,1.068,0,0,0,.99-1.129V62.1A1.068,1.068,0,0,0,11.9,60.968Zm4.949,0a1.068,1.068,0,0,0-.99,1.129v2.258a1,1,0,1,0,1.98,0V62.1A1.068,1.068,0,0,0,16.848,60.968Zm4.949,0a1.068,1.068,0,0,0-.99,1.129v2.258a1,1,0,1,0,1.98,0V62.1A1.068,1.068,0,0,0,21.8,60.968Zm4.949,0a1.068,1.068,0,0,0-.99,1.129v2.258a1,1,0,1,0,1.98,0V62.1A1.068,1.068,0,0,0,26.747,60.968Zm9.9,0a1.068,1.068,0,0,0-.99,1.129v2.258a1,1,0,1,0,1.98,0V62.1A1.068,1.068,0,0,0,36.646,60.968Zm4.949,0a1.068,1.068,0,0,0-.99,1.129v2.258a1,1,0,1,0,1.98,0V62.1A1.068,1.068,0,0,0,41.6,60.968Zm4.949,0a1.068,1.068,0,0,0-.99,1.129v2.258a1,1,0,1,0,1.98,0V62.1A1.068,1.068,0,0,0,46.545,60.968Zm4.949,0A1.068,1.068,0,0,0,50.5,62.1v2.258a1,1,0,1,0,1.98,0V62.1A1.068,1.068,0,0,0,51.495,60.968Zm4.949,0a1.068,1.068,0,0,0-.99,1.129v2.258a1,1,0,1,0,1.98,0V62.1A1.068,1.068,0,0,0,56.444,60.968Z" transform="translate(-2)" fill="#ec421d"/></svg>