<svg xmlns="http://www.w3.org/2000/svg" width="44.739" height="32.501" viewBox="0 0 44.739 32.501"><path d="M17.756,10.473a2.262,2.262,0,0,0-.728.165C7.478,14.5,2,21.666,2,30.294c0,7.937,4.181,12.676,11.185,12.676,5.526,0,9.694-3.526,9.694-8.2,0-4.449-3.773-7.855-8.9-8.176.461-3.339,4.01-6.669,7.518-8.352a2.231,2.231,0,0,0,.821-3.354l-2.643-3.523A2.241,2.241,0,0,0,17.756,10.473Zm23.861,0a2.262,2.262,0,0,0-.728.165C31.339,14.5,25.861,21.666,25.861,30.294c0,7.937,4.181,12.676,11.185,12.676,5.526,0,9.694-3.526,9.694-8.2,0-4.449-3.773-7.855-8.9-8.176.461-3.339,4.01-6.669,7.518-8.352a2.231,2.231,0,0,0,.821-3.354l-2.643-3.523A2.241,2.241,0,0,0,41.617,10.473ZM17.884,11.962a.746.746,0,0,1,.6.294l2.642,3.524a.74.74,0,0,1-.274,1.114c-4.052,1.945-8.413,6.034-8.413,10.417v.746h.746c4.676,0,8.2,2.885,8.2,6.711s-3.526,6.711-8.2,6.711c-2.915,0-9.694-1.09-9.694-11.185,0-11.347,9.857-16.559,14.1-18.274A.783.783,0,0,1,17.884,11.962Zm23.861,0a.746.746,0,0,1,.6.294l2.642,3.524a.74.74,0,0,1-.274,1.114C40.662,18.839,36.3,22.928,36.3,27.312v.746h.746c4.676,0,8.2,2.885,8.2,6.711s-3.526,6.711-8.2,6.711c-2.915,0-9.694-1.09-9.694-11.185,0-11.347,9.857-16.559,14.1-18.274A.783.783,0,0,1,41.745,11.962ZM14.832,14.739a.747.747,0,0,0-.572,1.1l.725,1.3a.746.746,0,1,0,1.3-.725l-.725-1.3A.744.744,0,0,0,14.832,14.739Zm23.859,0a.734.734,0,0,0-.281.09.745.745,0,0,0-.29,1.014l.725,1.3a.746.746,0,1,0,1.3-.725l-.725-1.3A.746.746,0,0,0,38.691,14.739ZM12.123,16.65a.745.745,0,0,0-.673,1.2l.923,1.171a.746.746,0,0,0,1.171-.923l-.923-1.171A.743.743,0,0,0,12.123,16.65Zm23.861,0a.745.745,0,0,0-.673,1.2l.923,1.171a.746.746,0,0,0,1.171-.923l-.923-1.171A.743.743,0,0,0,35.984,16.65ZM9.465,19.04a.745.745,0,0,0-.434,1.308l1.129.976a.746.746,0,0,0,.976-1.129l-1.129-.976A.743.743,0,0,0,9.465,19.04Zm23.861,0a.745.745,0,0,0-.434,1.308l1.129.976A.746.746,0,0,0,35,20.195l-1.129-.976A.742.742,0,0,0,33.326,19.04ZM7.6,21.915a.746.746,0,0,0-.422,1.4l1.314.706a.745.745,0,0,0,.7-1.314L7.885,22A.735.735,0,0,0,7.6,21.915Zm23.859,0a.746.746,0,0,0-.421,1.4l1.314.706a.745.745,0,0,0,.7-1.314L31.746,22A.743.743,0,0,0,31.462,21.915ZM15.42,30.657a.746.746,0,0,0-.183,1.451c.568.192,2.422.951,2.422,2.661a.746.746,0,0,0,1.491,0c0-2.7-2.63-3.8-3.436-4.073A.738.738,0,0,0,15.42,30.657Zm23.861,0a.746.746,0,0,0-.183,1.451c.568.192,2.422.951,2.422,2.661a.746.746,0,0,0,1.491,0c0-2.7-2.63-3.8-3.436-4.073A.738.738,0,0,0,39.281,30.657Z" transform="translate(-2 -10.47)" fill="#ec421d"/></svg>