<svg xmlns="http://www.w3.org/2000/svg" width="44.739" height="32.501" viewBox="0 0 44.739 32.501"><path d="M30.983,10.473a2.262,2.262,0,0,1,.728.165c9.55,3.864,15.028,11.028,15.028,19.656,0,7.937-4.181,12.676-11.185,12.676-5.526,0-9.694-3.526-9.694-8.2,0-4.449,3.773-7.855,8.9-8.176-.461-3.339-4.01-6.669-7.518-8.352a2.231,2.231,0,0,1-.821-3.354l2.643-3.523A2.241,2.241,0,0,1,30.983,10.473Zm-23.861,0a2.262,2.262,0,0,1,.728.165C17.4,14.5,22.878,21.666,22.878,30.294c0,7.937-4.181,12.676-11.185,12.676C6.167,42.971,2,39.444,2,34.768c0-4.449,3.773-7.855,8.9-8.176-.461-3.339-4.01-6.669-7.518-8.352a2.231,2.231,0,0,1-.821-3.354L5.2,11.363A2.241,2.241,0,0,1,7.122,10.473Zm23.733,1.488a.746.746,0,0,0-.6.294L27.613,15.78a.74.74,0,0,0,.274,1.114c4.052,1.945,8.413,6.034,8.413,10.417v.746h-.746c-4.676,0-8.2,2.885-8.2,6.711s3.526,6.711,8.2,6.711c2.915,0,9.694-1.09,9.694-11.185,0-11.347-9.857-16.559-14.1-18.274A.783.783,0,0,0,30.855,11.962Zm-23.861,0a.746.746,0,0,0-.6.294L3.752,15.78a.74.74,0,0,0,.274,1.114c4.052,1.945,8.413,6.034,8.413,10.417v.746h-.746c-4.676,0-8.2,2.885-8.2,6.711s3.526,6.711,8.2,6.711c2.915,0,9.694-1.09,9.694-11.185,0-11.347-9.857-16.559-14.1-18.274A.783.783,0,0,0,6.994,11.962Zm26.913,2.777a.747.747,0,0,1,.572,1.1l-.725,1.3a.746.746,0,1,1-1.3-.725l.725-1.3A.744.744,0,0,1,33.907,14.739Zm-23.859,0a.734.734,0,0,1,.281.09.745.745,0,0,1,.29,1.014l-.725,1.3a.746.746,0,1,1-1.3-.725l.725-1.3A.746.746,0,0,1,10.048,14.739ZM36.616,16.65a.745.745,0,0,1,.673,1.2l-.923,1.171a.746.746,0,0,1-1.171-.923l.923-1.171A.743.743,0,0,1,36.616,16.65Zm-23.861,0a.745.745,0,0,1,.673,1.2L12.5,19.022a.746.746,0,0,1-1.171-.923l.923-1.171A.743.743,0,0,1,12.755,16.65Zm26.519,2.39a.745.745,0,0,1,.434,1.308l-1.129.976a.746.746,0,0,1-.976-1.129l1.129-.976A.743.743,0,0,1,39.274,19.04Zm-23.861,0a.745.745,0,0,1,.434,1.308l-1.129.976a.746.746,0,0,1-.976-1.129l1.129-.976A.742.742,0,0,1,15.413,19.04Zm25.724,2.875a.746.746,0,0,1,.422,1.4l-1.314.706a.745.745,0,0,1-.7-1.314L40.854,22A.735.735,0,0,1,41.137,21.915Zm-23.859,0a.746.746,0,0,1,.421,1.4l-1.314.706a.745.745,0,0,1-.7-1.314L16.993,22A.743.743,0,0,1,17.277,21.915Zm16.042,8.743a.746.746,0,0,1,.183,1.451c-.568.192-2.422.951-2.422,2.661a.746.746,0,0,1-1.491,0c0-2.7,2.63-3.8,3.436-4.073A.738.738,0,0,1,33.319,30.657Zm-23.861,0a.746.746,0,0,1,.183,1.451c-.568.192-2.422.951-2.422,2.661a.746.746,0,0,1-1.491,0c0-2.7,2.63-3.8,3.436-4.073A.738.738,0,0,1,9.458,30.657Z" transform="translate(-2 -10.47)" fill="#ec421d"/></svg>