<svg xmlns="http://www.w3.org/2000/svg" width="27.45" height="27.45" viewBox="0 0 27.45 27.45"><path d="M9.7,6A3.7,3.7,0,0,0,6,9.7V29.755a3.7,3.7,0,0,0,3.7,3.7H29.754a3.7,3.7,0,0,0,3.7-3.7V9.7a3.7,3.7,0,0,0-3.7-3.7Zm0,1.056H29.754A2.642,2.642,0,0,1,32.394,9.7V29.755a2.642,2.642,0,0,1-2.639,2.639H9.7a2.642,2.642,0,0,1-2.639-2.639V9.7A2.642,2.642,0,0,1,9.7,7.056ZM9.167,9.167a.528.528,0,0,0-.528.528v1.056a.528.528,0,0,0,1.056,0V9.7A.528.528,0,0,0,9.167,9.167Zm2.639,0a.528.528,0,0,0-.528.528v1.056a.528.528,0,1,0,1.056,0V9.7A.528.528,0,0,0,11.807,9.167Zm2.639,0a.528.528,0,0,0-.528.528v1.056a.528.528,0,0,0,1.056,0V9.7A.528.528,0,0,0,14.446,9.167Zm2.639,0a.528.528,0,0,0-.528.528v1.056a.528.528,0,0,0,1.056,0V9.7A.528.528,0,0,0,17.085,9.167Zm2.639,0A.528.528,0,0,0,19.2,9.7v1.056a.528.528,0,1,0,1.056,0V9.7A.528.528,0,0,0,19.725,9.167Zm2.639,0a.528.528,0,0,0-.528.528v1.056a.528.528,0,0,0,1.056,0V9.7A.528.528,0,0,0,22.364,9.167Zm2.639,0a.528.528,0,0,0-.528.528v1.056a.528.528,0,1,0,1.056,0V9.7A.528.528,0,0,0,25,9.167Zm2.639,0a.528.528,0,0,0-.528.528v1.056a.528.528,0,1,0,1.056,0V9.7A.528.528,0,0,0,27.643,9.167Zm2.639,0a.528.528,0,0,0-.528.528v1.056a.528.528,0,0,0,1.056,0V9.7A.528.528,0,0,0,30.282,9.167Zm-6.623,4.644a4.126,4.126,0,0,0-4.122,4.12c0,.109,0,.219.012.326a9.955,9.955,0,0,1-6.636-3.607.46.46,0,0,0-.759.06,4.129,4.129,0,0,0,.049,4.231.456.456,0,0,0-.406.027.462.462,0,0,0-.231.394v.052a4.131,4.131,0,0,0,1.559,3.227.451.451,0,0,0-.161.118.466.466,0,0,0-.095.447A4.124,4.124,0,0,0,15.5,25.861a6.848,6.848,0,0,1-3.318.845,6.981,6.981,0,0,1-.817-.047.463.463,0,0,0-.305.85,10.819,10.819,0,0,0,5.856,1.718A10.424,10.424,0,0,0,25,25.678a11.234,11.234,0,0,0,2.8-7.322c0-.083,0-.165,0-.247a7.8,7.8,0,0,0,1.74-1.864.456.456,0,0,0-.031-.553.461.461,0,0,0-.542-.126c-.12.052-.239.1-.363.148a4.124,4.124,0,0,0,.5-1.033.463.463,0,0,0-.676-.54,6.817,6.817,0,0,1-1.938.781A4.138,4.138,0,0,0,23.659,13.811Zm0,.926a3.2,3.2,0,0,1,2.332,1.01.466.466,0,0,0,.429.136,7.86,7.86,0,0,0,1.107-.305,3.227,3.227,0,0,1-.722.59.464.464,0,0,0,.293.858c.223-.029.443-.064.662-.109a6.994,6.994,0,0,1-.713.59.465.465,0,0,0-.192.4c.006.151.012.3.012.454a9.944,9.944,0,0,1-13.684,9.215,7.715,7.715,0,0,0,3.829-1.6.462.462,0,0,0-.274-.827,3.2,3.2,0,0,1-2.683-1.549,4.226,4.226,0,0,0,1.029-.144.463.463,0,0,0-.031-.9A3.2,3.2,0,0,1,12.574,20.1a4.047,4.047,0,0,0,1.1.183.449.449,0,0,0,.456-.32.46.46,0,0,0-.183-.526,3.2,3.2,0,0,1-1.264-3.652,10.884,10.884,0,0,0,7.392,3.437.457.457,0,0,0,.379-.165.471.471,0,0,0,.1-.4,3.194,3.194,0,0,1,3.112-3.924Z" transform="translate(-6 -6)" fill="#fff"/></svg>