<svg xmlns="http://www.w3.org/2000/svg" xmlns:xlink="http://www.w3.org/1999/xlink" width="106" height="106" viewBox="0 0 106 106"><defs><filter id="a" x="0" y="0" width="106" height="106" filterUnits="userSpaceOnUse"><feOffset dx="2" input="SourceAlpha"/><feGaussianBlur stdDeviation="1" result="b"/><feFlood flood-opacity="0.161"/><feComposite operator="in" in2="b"/><feComposite in="SourceGraphic"/></filter></defs><g transform="translate(-138 -1940)"><g transform="matrix(1, 0, 0, 1, 138, 1940)" filter="url(#a)"><path d="M10,0h90a0,0,0,0,1,0,0V100a0,0,0,0,1,0,0H10A10,10,0,0,1,0,90V10A10,10,0,0,1,10,0Z" transform="translate(1 3)" fill="#ec421d"/></g><path d="M31,4A29,29,0,1,0,60,33,29.036,29.036,0,0,0,31,4Zm0,2A27,27,0,1,1,4,33,27.032,27.032,0,0,1,31,6Zm-.437,4A23,23,0,0,0,14.734,49.262a1,1,0,0,0,1.418-1.414A21,21,0,0,1,34.34,12.266a1,1,0,0,0,.316-1.977A22.958,22.958,0,0,0,30.563,10Zm8.1,1.383a1,1,0,0,0-.309,1.938,21.616,21.616,0,0,1,2.1.914.978.978,0,0,0,.449.109,1,1,0,0,0,.449-1.895,23.047,23.047,0,0,0-2.3-1A.912.912,0,0,0,38.66,11.387Zm5.773,3.289a1.014,1.014,0,0,0-.668.375,1,1,0,0,0,.172,1.4,20.769,20.769,0,0,1,1.91,1.7,21.014,21.014,0,0,1,0,29.7,1,1,0,0,0,0,1.418,1,1,0,0,0,1.418,0,23.036,23.036,0,0,0,0-32.531,24.16,24.16,0,0,0-2.094-1.856A1.012,1.012,0,0,0,44.434,14.676ZM24,18a2,2,0,0,0-2,2V44a2,2,0,0,0,2,2h3.691a2,2,0,0,0,2-2V36.77h.7L35.2,45.008A2,2,0,0,0,36.922,46h4.613a2,2,0,0,0,1.73-3.008l-4.914-8.43q.3-.246.586-.527A9.391,9.391,0,0,0,32.309,18Zm0,2h8.309a7.389,7.389,0,0,1,5.223,12.609,7.192,7.192,0,0,1-1.855,1.34L41.535,44H36.922l-5.391-9.23h-3.84V44H24Zm3.691,3.691v7.387h4.617a3.693,3.693,0,0,0,0-7.387Zm2,2h2.617A1.692,1.692,0,0,1,34,27.383a1.73,1.73,0,0,1-.5,1.211,1.7,1.7,0,0,1-1.187.484H29.691Zm-8.316,22.7a.992.992,0,0,0-.988.492l-1,1.73a1,1,0,1,0,1.727,1l1-1.73a1,1,0,0,0-.363-1.367A1.064,1.064,0,0,0,21.375,48.395Zm19.25,0a1.015,1.015,0,0,0-.375.125,1,1,0,0,0-.363,1.371l1,1.731a1,1,0,0,0,1.727-1l-1-1.731A1,1,0,0,0,40.625,48.395Zm-4.437,1.949a.944.944,0,0,0-.4.027,1,1,0,0,0-.707,1.223l.52,1.934a1,1,0,0,0,.965.738.981.981,0,0,0,.262-.031,1,1,0,0,0,.707-1.223l-.516-1.934A1.007,1.007,0,0,0,36.188,50.344Zm-10.371,0a1.007,1.007,0,0,0-.832.734l-.516,1.934a1,1,0,0,0,.707,1.223.982.982,0,0,0,.262.031,1,1,0,0,0,.965-.738l.52-1.934a1,1,0,0,0-.707-1.223A.987.987,0,0,0,25.816,50.344ZM31,51a1,1,0,0,0-1,1v2a1,1,0,0,0,2,0V52A1,1,0,0,0,31,51Z" transform="translate(158 1960)" fill="#fff"/></g></svg>