<svg xmlns="http://www.w3.org/2000/svg" xmlns:xlink="http://www.w3.org/1999/xlink" width="106" height="106" viewBox="0 0 106 106"><defs><filter id="a" x="0" y="0" width="106" height="106" filterUnits="userSpaceOnUse"><feOffset dx="2" input="SourceAlpha"/><feGaussianBlur stdDeviation="1" result="b"/><feFlood flood-opacity="0.161"/><feComposite operator="in" in2="b"/><feComposite in="SourceGraphic"/></filter></defs><g transform="translate(6681 -4615)"><g transform="matrix(1, 0, 0, 1, -6681, 4615)" filter="url(#a)"><path d="M10,0h90a0,0,0,0,1,0,0V100a0,0,0,0,1,0,0H10A10,10,0,0,1,0,90V10A10,10,0,0,1,10,0Z" transform="translate(1 3)" fill="#ec421d"/></g><path d="M41.2,6V37.585a10.166,10.166,0,0,0-4.057-.869h-.663a10.187,10.187,0,0,0-4.057.869v-27.2a1.463,1.463,0,0,0-2.925,0V39.5A10.188,10.188,0,0,0,26.5,44.652l-1.577,6.833a5.852,5.852,0,0,0,5.7,7.17H43a5.852,5.852,0,0,0,5.7-7.17l-1.577-6.833A10.148,10.148,0,0,0,44.121,39.5V6ZM35.345,8.925a1.463,1.463,0,0,0,0,2.925H38.27a1.463,1.463,0,0,0,0-2.925Zm0,7.313a1.463,1.463,0,0,0,0,2.925H38.27a1.463,1.463,0,0,0,0-2.925Zm0,7.313a1.463,1.463,0,0,0,0,2.925H38.27a1.463,1.463,0,0,0,0-2.925Zm0,7.313a1.463,1.463,0,1,0,0,2.925H38.27a1.463,1.463,0,1,0,0-2.925Zm1.131,8.776h.663a7.273,7.273,0,0,1,7.125,5.668l1.577,6.839A2.915,2.915,0,0,1,43,55.731H30.62a2.926,2.926,0,0,1-2.285-1.1,2.893,2.893,0,0,1-.56-2.48l1.577-6.839A7.278,7.278,0,0,1,36.476,39.641Zm-2.594,7.313a1.463,1.463,0,0,0,0,2.925h5.851a1.463,1.463,0,1,0,0-2.925Z" transform="translate(-6666.771 4636)" fill="#fff"/></g></svg>