<svg xmlns="http://www.w3.org/2000/svg" xmlns:xlink="http://www.w3.org/1999/xlink" width="106" height="106" viewBox="0 0 106 106"><defs><filter id="a" x="0" y="0" width="106" height="106" filterUnits="userSpaceOnUse"><feOffset dx="2" input="SourceAlpha"/><feGaussianBlur stdDeviation="1" result="b"/><feFlood flood-opacity="0.161"/><feComposite operator="in" in2="b"/><feComposite in="SourceGraphic"/></filter></defs><g transform="translate(6681 -4746)"><g transform="matrix(1, 0, 0, 1, -6681, 4746)" filter="url(#a)"><path d="M10,0h90a0,0,0,0,1,0,0V100a0,0,0,0,1,0,0H10A10,10,0,0,1,0,90V10A10,10,0,0,1,10,0Z" transform="translate(1 3)" fill="#ec421d"/></g><path d="M9.376,26.059A3.38,3.38,0,0,0,6,29.435V60.948a3.383,3.383,0,0,0,3.376,3.376H63.4a3.383,3.383,0,0,0,3.376-3.376V29.435A3.38,3.38,0,0,0,63.4,26.059Zm0,2.251H29.714a1.18,1.18,0,0,0,.352.057,1.208,1.208,0,0,0,.325-.057H63.4a1.125,1.125,0,0,1,1.125,1.125V55.32A1.125,1.125,0,0,0,63.4,56.446V58.7a1.128,1.128,0,0,0,1.125,1.125v1.125A1.128,1.128,0,0,1,63.4,62.073H9.376a1.128,1.128,0,0,1-1.125-1.125V59.822A1.128,1.128,0,0,0,9.376,58.7V56.446A1.125,1.125,0,0,0,8.251,55.32V29.435A1.125,1.125,0,0,1,9.376,28.31Zm19.133,4.436a4.5,4.5,0,1,0,0,9H44.265a4.5,4.5,0,0,0,0-9Zm0,2.251H44.265a2.251,2.251,0,0,1,0,4.5H28.509a2.251,2.251,0,0,1,0-4.5ZM13.878,55.32a1.125,1.125,0,0,0-1.125,1.125V58.7A1.125,1.125,0,1,0,15,58.7V56.446A1.125,1.125,0,0,0,13.878,55.32Zm5.627,0a1.125,1.125,0,0,0-1.125,1.125V58.7a1.125,1.125,0,1,0,2.251,0V56.446A1.125,1.125,0,0,0,19.505,55.32Zm5.627,0a1.125,1.125,0,0,0-1.125,1.125V58.7a1.125,1.125,0,1,0,2.251,0V56.446A1.125,1.125,0,0,0,25.133,55.32Zm5.627,0a1.125,1.125,0,0,0-1.125,1.125V58.7a1.125,1.125,0,1,0,2.251,0V56.446A1.125,1.125,0,0,0,30.76,55.32Zm5.627,0a1.125,1.125,0,0,0-1.125,1.125V58.7a1.125,1.125,0,1,0,2.251,0V56.446A1.125,1.125,0,0,0,36.387,55.32Zm5.627,0a1.125,1.125,0,0,0-1.125,1.125V58.7a1.125,1.125,0,1,0,2.251,0V56.446A1.125,1.125,0,0,0,42.014,55.32Zm5.627,0a1.125,1.125,0,0,0-1.125,1.125V58.7a1.125,1.125,0,1,0,2.251,0V56.446A1.125,1.125,0,0,0,47.642,55.32Zm5.627,0a1.125,1.125,0,0,0-1.125,1.125V58.7a1.125,1.125,0,1,0,2.251,0V56.446A1.125,1.125,0,0,0,53.269,55.32Zm5.627,0a1.125,1.125,0,0,0-1.125,1.125V58.7a1.125,1.125,0,1,0,2.251,0V56.446A1.125,1.125,0,0,0,58.9,55.32Z" transform="translate(-6666.387 4756.867)" fill="#fff"/></g></svg>