<svg xmlns="http://www.w3.org/2000/svg" xmlns:xlink="http://www.w3.org/1999/xlink" width="106" height="106" viewBox="0 0 106 106"><defs><filter id="a" x="0" y="0" width="106" height="106" filterUnits="userSpaceOnUse"><feOffset dx="2" input="SourceAlpha"/><feGaussianBlur stdDeviation="1" result="b"/><feFlood flood-opacity="0.161"/><feComposite operator="in" in2="b"/><feComposite in="SourceGraphic"/></filter></defs><g transform="translate(6681 -4889)"><g transform="matrix(1, 0, 0, 1, -6681, 4889)" filter="url(#a)"><path d="M10,0h90a0,0,0,0,1,0,0V100a0,0,0,0,1,0,0H10A10,10,0,0,1,0,90V10A10,10,0,0,1,10,0Z" transform="translate(1 3)" fill="#ec421d"/></g><path d="M45,4a.943.943,0,0,0-1,1v7H11a2.947,2.947,0,0,0-3,3V40H1a.943.943,0,0,0-1,1v8a2.947,2.947,0,0,0,3,3H8v5a2.947,2.947,0,0,0,3,3h8a.943.943,0,0,0,1-1V52H53a2.947,2.947,0,0,0,3-3V24h7a.943.943,0,0,0,1-1V15a2.947,2.947,0,0,0-3-3H56V7a2.947,2.947,0,0,0-3-3ZM.863,5.039A1,1,0,0,0,.2,5.4,1.079,1.079,0,0,0,.4,6.8l5.9,4.7a1.389,1.389,0,0,0,.6.2.906.906,0,0,0,.8-.4,1.08,1.08,0,0,0-.2-1.4L1.6,5.2A1.009,1.009,0,0,0,.863,5.039ZM46,6h7a.943.943,0,0,1,1,1v5H46ZM11,14H61a.943.943,0,0,1,1,1v7H59V20a1,1,0,0,0-2,0v2H54V20a1,1,0,0,0-2,0v2H49V20a1,1,0,0,0-2,0v2H44V20a1,1,0,0,0-2,0v2H39V20a1,1,0,0,0-2,0v2H34V20a1,1,0,0,0-2,0v2H29V20a1,1,0,0,0-2,0v2H24V20a1,1,0,0,0-2,0v2H15a1,1,0,0,0,0,2h3V58H11a.943.943,0,0,1-1-1V15A.943.943,0,0,1,11,14Zm9,10H44V40H20Zm26,0h8V49a.943.943,0,0,1-1,1H20V44a1,1,0,0,0,2,0V42h3v2a1,1,0,0,0,2,0V42h3v2a1,1,0,0,0,2,0V42h3v2a1,1,0,0,0,2,0V42h3v2a1,1,0,0,0,2,0V42h7a1,1,0,0,0,0-2H46ZM26.063,25.34a.987.987,0,0,0-.66.359,1.073,1.073,0,0,0,.2,1.4L39.5,38.3a1.39,1.39,0,0,0,.6.2.92.92,0,0,0,.8-.4,1.08,1.08,0,0,0-.2-1.4L26.8,25.5A1,1,0,0,0,26.063,25.34ZM2,42H5v2a.943.943,0,0,0,1,1,.943.943,0,0,0,1-1V42H8v8H3a.943.943,0,0,1-1-1Zm56.063,9.238a1,1,0,0,0-.66.359,1.078,1.078,0,0,0,.2,1.4l4.8,3.8a1.391,1.391,0,0,0,.6.2.91.91,0,0,0,.8-.4,1.071,1.071,0,0,0-.2-1.4l-4.8-3.8A.989.989,0,0,0,58.063,51.238Z" transform="translate(-6662 4910)" fill="#fff"/></g></svg>