<svg xmlns="http://www.w3.org/2000/svg" xmlns:xlink="http://www.w3.org/1999/xlink" width="106" height="106" viewBox="0 0 106 106"><defs><filter id="a" x="0" y="0" width="106" height="106" filterUnits="userSpaceOnUse"><feOffset dx="2" input="SourceAlpha"/><feGaussianBlur stdDeviation="1" result="b"/><feFlood flood-opacity="0.161"/><feComposite operator="in" in2="b"/><feComposite in="SourceGraphic"/></filter></defs><g transform="translate(6681 -5026)"><g transform="matrix(1, 0, 0, 1, -6681, 5026)" filter="url(#a)"><path d="M10,0h90a0,0,0,0,1,0,0V100a0,0,0,0,1,0,0H10A10,10,0,0,1,0,90V10A10,10,0,0,1,10,0Z" transform="translate(1 3)" fill="#ec421d"/></g><path d="M15.1,6A15.112,15.112,0,0,0,0,21.1c0,4.382,2.328,9.147,6.918,14.161,5.77,6.343,13.613,11.483,17.773,13.981a4.405,4.405,0,0,0,2.282.636h.053a4.407,4.407,0,0,0,2.281-.634c4.162-2.5,12-7.64,17.771-13.981C51.671,30.242,54,25.478,54,21.1A15.085,15.085,0,0,0,28.307,10.361a2.428,2.428,0,0,1-1.307.7,2.429,2.429,0,0,1-1.31-.705A14.971,14.971,0,0,0,15.1,6Zm0,1.688a13.292,13.292,0,0,1,9.4,3.866,3.977,3.977,0,0,0,2.5,1.2,3.974,3.974,0,0,0,2.5-1.193A13.4,13.4,0,0,1,52.313,21.1c0,3.946-2.18,8.327-6.481,13.024-5.834,6.415-14.108,11.7-17.4,13.675a2.742,2.742,0,0,1-1.429.392h-.013a2.688,2.688,0,0,1-1.432-.394C22.275,45.818,14,40.534,8.166,34.117c-4.3-4.695-6.478-9.075-6.478-13.022A13.423,13.423,0,0,1,15.1,7.688Zm23.717,2.531a.844.844,0,0,0,0,1.688,9.274,9.274,0,0,1,2.76.417.864.864,0,0,0,.251.038.844.844,0,0,0,.25-1.65A10.955,10.955,0,0,0,38.813,10.219Zm5.779,1.918a.843.843,0,0,0-.358,1.516,9.293,9.293,0,0,1,3.586,5.285.844.844,0,0,0,.817.641.9.9,0,0,0,.2-.025.845.845,0,0,0,.615-1.023,10.983,10.983,0,0,0-4.235-6.247A.849.849,0,0,0,44.592,12.137Zm-33.6,16.608a.839.839,0,0,0-.613.2l-1.28,1.1a.844.844,0,0,0,.552,1.483.835.835,0,0,0,.55-.2l1.279-1.1a.844.844,0,0,0-.488-1.482ZM13.783,31.8a.836.836,0,0,0-.6.242l-1.206,1.182a.843.843,0,0,0,.592,1.445.833.833,0,0,0,.59-.241l1.206-1.182a.845.845,0,0,0-.583-1.447Zm3.022,2.82a.846.846,0,0,0-.583.279L15.1,36.154a.844.844,0,1,0,1.256,1.127l1.127-1.256a.843.843,0,0,0-.672-1.406Zm3.174,2.627a.842.842,0,0,0-.562.316L18.375,38.89A.844.844,0,1,0,19.7,39.933l1.043-1.327a.844.844,0,0,0-.765-1.36Zm3.329,2.442a.837.837,0,0,0-.541.351l-.956,1.391a.844.844,0,0,0,1.391.956L24.159,41a.843.843,0,0,0-.85-1.307Zm3.8,2.17a.844.844,0,0,0-.84.405l-.864,1.45a.844.844,0,0,0,1.45.864l.863-1.45a.846.846,0,0,0-.61-1.269Z" transform="translate(-6657 5051.063)" fill="#fff"/></g></svg>