<svg xmlns="http://www.w3.org/2000/svg" xmlns:xlink="http://www.w3.org/1999/xlink" width="106" height="106" viewBox="0 0 106 106"><defs><filter id="a" x="0" y="0" width="106" height="106" filterUnits="userSpaceOnUse"><feOffset dx="2" input="SourceAlpha"/><feGaussianBlur stdDeviation="1" result="b"/><feFlood flood-opacity="0.161"/><feComposite operator="in" in2="b"/><feComposite in="SourceGraphic"/></filter></defs><g transform="translate(-138 -2064)"><g transform="matrix(1, 0, 0, 1, 138, 2064)" filter="url(#a)"><path d="M10,0h90a0,0,0,0,1,0,0V100a0,0,0,0,1,0,0H10A10,10,0,0,1,0,90V10A10,10,0,0,1,10,0Z" transform="translate(1 3)" fill="#ec421d"/></g><path d="M32,8a2.987,2.987,0,0,0-1.844,5.348L21.59,29.527,7.543,19.578a3,3,0,1,0-3.211,1.344L8,41.09V50H7a3,3,0,0,0,0,6H57a3,3,0,0,0,0-6H56V41.09l3.668-20.168a3.013,3.013,0,1,0-3.215-1.352l-14.1,9.957L33.844,13.352A2.99,2.99,0,0,0,32,8Zm0,1.793A1.207,1.207,0,1,1,30.793,11,1.21,1.21,0,0,1,32,9.793Zm0,4.348,9.117,17.324a1.006,1.006,0,0,0,.652.508,1.017,1.017,0,0,0,.813-.156l15-10.59L54.016,40.82a.692.692,0,0,0,0,.09c0,.031-.016.059-.016.09v9H10V42H43a1,1,0,0,0,0-2H9.836L6.422,21.234,21.359,31.816a1,1,0,0,0,1.465-.348ZM5,16.793A1.207,1.207,0,1,1,3.793,18,1.208,1.208,0,0,1,5,16.793Zm54,0A1.207,1.207,0,1,1,57.793,18,1.21,1.21,0,0,1,59,16.793ZM32,24.035a.98.98,0,0,0-.867.469l-4,7a1,1,0,0,0,.16,1.2l4,4a1,1,0,0,0,1.414,0l4-4a1,1,0,0,0,.16-1.2l-4-7A.979.979,0,0,0,32,24.035Zm0,2.98,2.754,4.816L32,34.586l-2.754-2.754ZM47,40a1,1,0,0,0,0,2h4a1,1,0,0,0,0-2ZM12,44a1,1,0,0,0-1,1v2a1,1,0,0,0,2,0V45A1,1,0,0,0,12,44Zm5,0a1,1,0,0,0-1,1v2a1,1,0,0,0,2,0V45A1,1,0,0,0,17,44Zm5,0a1,1,0,0,0-1,1v2a1,1,0,0,0,2,0V45A1,1,0,0,0,22,44Zm5,0a1,1,0,0,0-1,1v2a1,1,0,0,0,2,0V45A1,1,0,0,0,27,44Zm5,0a1,1,0,0,0-1,1v2a1,1,0,0,0,2,0V45A1,1,0,0,0,32,44Zm5,0a1,1,0,0,0-1,1v2a1,1,0,0,0,2,0V45A1,1,0,0,0,37,44Zm5,0a1,1,0,0,0-1,1v2a1,1,0,0,0,2,0V45A1,1,0,0,0,42,44Zm5,0a1,1,0,0,0-1,1v2a1,1,0,0,0,2,0V45A1,1,0,0,0,47,44Zm5,0a1,1,0,0,0-1,1v2a1,1,0,0,0,2,0V45A1,1,0,0,0,52,44ZM7,52H57a1,1,0,0,1,0,2H7a1,1,0,0,1,0-2Z" transform="translate(157 2085)" fill="#fff"/></g></svg>