<svg xmlns="http://www.w3.org/2000/svg" xmlns:xlink="http://www.w3.org/1999/xlink" width="106" height="106" viewBox="0 0 106 106"><defs><filter id="a" x="0" y="0" width="106" height="106" filterUnits="userSpaceOnUse"><feOffset dx="2" input="SourceAlpha"/><feGaussianBlur stdDeviation="1" result="b"/><feFlood flood-opacity="0.161"/><feComposite operator="in" in2="b"/><feComposite in="SourceGraphic"/></filter></defs><g transform="translate(6681 -3759)"><g transform="matrix(1, 0, 0, 1, -6681, 3759)" filter="url(#a)"><path d="M10,0h90V100H10A10,10,0,0,1,0,90V10A10,10,0,0,1,10,0Z" transform="translate(1 3)" fill="#ec421d"/></g><path d="M5,6.057a1,1,0,0,0-1,1v2a1,1,0,0,0,2,0v-2A1,1,0,0,0,5,6.057Zm5,0a1,1,0,0,0-1,1v2a1,1,0,0,0,2,0v-2A1,1,0,0,0,10,6.057Zm5,0a1,1,0,0,0-1,1v2a1,1,0,0,0,2,0v-2A1,1,0,0,0,15,6.057Zm5,0a1,1,0,0,0-1,1v2a1,1,0,0,0,2,0v-2A1,1,0,0,0,20,6.057Zm5,0a1,1,0,0,0-1,1v2a1,1,0,0,0,2,0v-2A1,1,0,0,0,25,6.057Zm5,0a1,1,0,0,0-1,1v2a1,1,0,0,0,2,0v-2A1,1,0,0,0,30,6.057Zm5,0a1,1,0,0,0-1,1v2a1,1,0,0,0,2,0v-2A1,1,0,0,0,35,6.057Zm5,0a1,1,0,0,0-1,1v2a1,1,0,0,0,2,0v-2A1,1,0,0,0,40,6.057Zm5,0a1,1,0,0,0-1,1v2a1,1,0,0,0,2,0v-2A1,1,0,0,0,45,6.057Zm5,0a1,1,0,0,0-1,1v2a1,1,0,0,0,2,0v-2A1,1,0,0,0,50,6.057Zm5,0a1,1,0,0,0-1,1v2a1,1,0,0,0,2,0v-2A1,1,0,0,0,55,6.057Zm5,0a1,1,0,0,0-1,1v2a1,1,0,0,0,2,0v-2A1,1,0,0,0,60,6.057ZM7,14a3,3,0,0,0-3,3v2a3,3,0,0,0,3,3H9a3,3,0,0,0,3-3V17a3,3,0,0,0-3-3Zm10,0a3,3,0,0,0-3,3v2a3,3,0,0,0,3,3H59a3,3,0,0,0,3-3V17a3,3,0,0,0-3-3ZM7,16H9a1,1,0,0,1,1,1v2a1,1,0,0,1-1,1H7a1,1,0,0,1-1-1V17A1,1,0,0,1,7,16Zm10,0H59a1,1,0,0,1,1,1v2a1,1,0,0,1-1,1H17a1,1,0,0,1-1-1V17A1,1,0,0,1,17,16ZM7,26a3,3,0,0,0-3,3v2a3,3,0,0,0,3,3H9a3,3,0,0,0,3-3V29a3,3,0,0,0-3-3Zm10,0a3,3,0,0,0-3,3v2a3,3,0,0,0,3,3H47a3,3,0,0,0,3-3V29a3,3,0,0,0-3-3ZM7,28H9a1,1,0,0,1,1,1v2a1,1,0,0,1-1,1H7a1,1,0,0,1-1-1V29A1,1,0,0,1,7,28Zm10,0H47a1,1,0,0,1,1,1v2a1,1,0,0,1-1,1H17a1,1,0,0,1-1-1V29A1,1,0,0,1,17,28ZM7,38a3,3,0,0,0-3,3v2a3,3,0,0,0,3,3H9a3,3,0,0,0,3-3V41a3,3,0,0,0-3-3Zm10,0a3,3,0,0,0-3,3v2a3,3,0,0,0,3,3H35a3,3,0,0,0,3-3V41a3,3,0,0,0-3-3ZM7,40H9a1,1,0,0,1,1,1v2a1,1,0,0,1-1,1H7a1,1,0,0,1-1-1V41A1,1,0,0,1,7,40Zm10,0H35a1,1,0,0,1,1,1v2a1,1,0,0,1-1,1H17a1,1,0,0,1-1-1V41A1,1,0,0,1,17,40ZM7,50a3,3,0,0,0-3,3v2a3,3,0,0,0,3,3H9a3,3,0,0,0,3-3V53a3,3,0,0,0-3-3Zm10,0a3,3,0,0,0-3,3v2a3,3,0,0,0,3,3h6a3,3,0,0,0,3-3V53a3,3,0,0,0-3-3ZM7,52H9a1,1,0,0,1,1,1v2a1,1,0,0,1-1,1H7a1,1,0,0,1-1-1V53A1,1,0,0,1,7,52Zm10,0h6a1,1,0,0,1,1,1v2a1,1,0,0,1-1,1H17a1,1,0,0,1-1-1V53A1,1,0,0,1,17,52Z" transform="translate(-6663 3779.943)" fill="#fff"/></g></svg>