<svg xmlns="http://www.w3.org/2000/svg" xmlns:xlink="http://www.w3.org/1999/xlink" width="106" height="106" viewBox="0 0 106 106"><defs><filter id="a" x="0" y="0" width="106" height="106" filterUnits="userSpaceOnUse"><feOffset dx="2" input="SourceAlpha"/><feGaussianBlur stdDeviation="1" result="b"/><feFlood flood-opacity="0.161"/><feComposite operator="in" in2="b"/><feComposite in="SourceGraphic"/></filter></defs><g transform="translate(6681 -3879)"><g transform="matrix(1, 0, 0, 1, -6681, 3879)" filter="url(#a)"><path d="M10,0h90a0,0,0,0,1,0,0V100a0,0,0,0,1,0,0H10A10,10,0,0,1,0,90V10A10,10,0,0,1,10,0Z" transform="translate(1 3)" fill="#ec421d"/></g><path d="M18.332,3a11.684,11.684,0,0,0-8.107,3.238,3.038,3.038,0,0,0,.436,4.717h0a2.972,2.972,0,0,0,3.674-.346,5.776,5.776,0,0,1,8.115.113A5.352,5.352,0,0,1,24,14.646,5.861,5.861,0,0,1,17.932,20H5a3.015,3.015,0,0,0-3,3,1,1,0,0,0,.295.709A2.887,2.887,0,0,0,5,26H17.932C24.4,26,29.833,21.012,30,14.8A11.364,11.364,0,0,0,26.75,6.535,11.684,11.684,0,0,0,18.332,3Zm0,2a9.638,9.638,0,0,1,6.984,2.932A9.319,9.319,0,0,1,28,14.75C27.865,19.815,23.371,24,17.932,24H5a1,1,0,0,1,0-2H17.932c4.3,0,7.959-3.222,8.066-7.3v0a7.393,7.393,0,0,0-2.113-5.369,7.776,7.776,0,0,0-10.945-.15.965.965,0,0,1-1.2.1l0,0a.989.989,0,0,1-.133-1.59A9.671,9.671,0,0,1,18.332,5ZM47.523,8a14.324,14.324,0,0,0-10.736,5.459,3.017,3.017,0,0,0,.894,4.508l0,0a3.014,3.014,0,0,0,3.775-.736A8.47,8.47,0,0,1,47.523,14a7.358,7.358,0,0,1,5.436,2.35v0a7.419,7.419,0,0,1,2.027,5.617A7.7,7.7,0,0,1,47.113,29H5a3.015,3.015,0,0,0-3,3,1,1,0,0,0,.295.709A2.887,2.887,0,0,0,5,35H47.113A13.725,13.725,0,0,0,60.975,22.328,13.49,13.49,0,0,0,47.523,8Zm0,2a11.527,11.527,0,0,1,8.348,3.607,11.387,11.387,0,0,1,3.107,8.6A11.706,11.706,0,0,1,47.113,33H5a1,1,0,0,1,0-2H47.113a9.722,9.722,0,0,0,9.869-8.912A9.491,9.491,0,0,0,47.523,12a10.228,10.228,0,0,0-7.609,3.965.984.984,0,0,1-1.26.254l-.006,0a.983.983,0,0,1-.309-1.494A12.517,12.517,0,0,1,47.523,10ZM44.67,37.107a.994.994,0,0,0-.723.252l-1.494,1.328a1,1,0,0,0,1.328,1.494l1.5-1.328a1,1,0,0,0-.607-1.746ZM5,38a3.015,3.015,0,0,0-3,3,1,1,0,0,0,.295.709A2.887,2.887,0,0,0,5,44H31.014A5.812,5.812,0,0,1,37,49.354a5.388,5.388,0,0,1-1.553,3.953,5.646,5.646,0,0,1-7.963.1,2.974,2.974,0,0,0-3.674-.363l0,0a3.037,3.037,0,0,0-.455,4.715,11.648,11.648,0,0,0,16.391-.266A11.4,11.4,0,0,0,43,49.2v0A11.824,11.824,0,0,0,31.014,38Zm0,2H31.014A9.83,9.83,0,0,1,41,49.25,9.356,9.356,0,0,1,38.311,56.1a9.648,9.648,0,0,1-13.57.223.988.988,0,0,1,.139-1.588l0,0a.965.965,0,0,1,1.2.1h0a7.641,7.641,0,0,0,10.8-.131A7.431,7.431,0,0,0,39,49.3,7.8,7.8,0,0,0,31.014,42H5a1,1,0,0,1,0-2Zm42.377,1.363a1,1,0,0,0-.387.092l-1.812.846a1,1,0,1,0,.844,1.811l1.814-.844a1,1,0,0,0-.459-1.9Zm1.338,4.908-1.982.264A1,1,0,0,0,47,48.518l1.982-.264a1,1,0,1,0-.264-1.982Zm-1.762,4.779a.99.99,0,0,0-1.148.824,1,1,0,0,0,.826,1.148l1.973.324a.916.916,0,0,0,.164.014,1,1,0,0,0,.16-1.986Zm-1.48,4.279a1,1,0,0,0-.5,1.9l1.791.887a.982.982,0,0,0,.441.1,1,1,0,0,0,.445-1.9l-1.791-.887A1,1,0,0,0,45.473,55.33Z" transform="translate(-6661 3900)" fill="#fff"/></g></svg>