<svg xmlns="http://www.w3.org/2000/svg" xmlns:xlink="http://www.w3.org/1999/xlink" width="106" height="106" viewBox="0 0 106 106"><defs><filter id="a" x="0" y="0" width="106" height="106" filterUnits="userSpaceOnUse"><feOffset dx="2" input="SourceAlpha"/><feGaussianBlur stdDeviation="1" result="b"/><feFlood flood-opacity="0.161"/><feComposite operator="in" in2="b"/><feComposite in="SourceGraphic"/></filter></defs><g transform="translate(6681 -4002)"><g transform="matrix(1, 0, 0, 1, -6681, 4002)" filter="url(#a)"><path d="M10,0h90a0,0,0,0,1,0,0V100a0,0,0,0,1,0,0H10A10,10,0,0,1,0,90V10A10,10,0,0,1,10,0Z" transform="translate(1 3)" fill="#ec421d"/></g><path d="M24.7,6.988a4.841,4.841,0,0,0-3.26,1.406l-8.135,8.135a4.95,4.95,0,0,0-.523,5.984c.948,1.644,2.627,5.011,4.383,6.791.594.6,1.643,1.568,2.855,2.66a32.073,32.073,0,0,1-11.8-2.109l-1.338-4.68v0a3.013,3.013,0,0,0-3.709-2.059h0a3.016,3.016,0,0,0-2.059,3.709l6.342,22.2A11.039,11.039,0,0,0,18.033,57H45.967a11.039,11.039,0,0,0,10.576-7.977l6.342-22.2a3,3,0,1,0-5.77-1.648l-.857,3a34.565,34.565,0,0,0-10.734-2.139l-5.7-6.08a22.242,22.242,0,0,0,2.977.877,5.284,5.284,0,0,0,4.4-1.123v0a2.2,2.2,0,0,0,.027-3.3,22.677,22.677,0,0,0-2.988-2.084c-1.117-.7-2.229-1.387-2.615-1.687h0a15.278,15.278,0,0,0-6.771-3.264h0c-1.339-.22-5.2-.789-5.244-.795a2.567,2.567,0,0,1-.645-.2l-.012-.006-2.109-.957A4.8,4.8,0,0,0,24.7,6.988Zm.06,2a2.807,2.807,0,0,1,1.248.252l2.1.953a4.579,4.579,0,0,0,1.146.363l.027,0s3.954.582,5.236.793a13.429,13.429,0,0,1,5.871,2.867l0,0c.63.49,1.685,1.116,2.785,1.8a24.448,24.448,0,0,1,2.7,1.867.281.281,0,0,1,.027.295,2.826,2.826,0,0,1-2.795.674c-2.016-.317-5.5-1.7-7.6-2.252a4.147,4.147,0,0,0-2.547.072,6.548,6.548,0,0,0-1.787,1.139,8.815,8.815,0,0,1-4.373,2.2A1,1,0,1,0,27.2,21.98a11.22,11.22,0,0,0,5.236-2.605,5.176,5.176,0,0,1,1.246-.826A1.938,1.938,0,0,1,35,18.541c.26.068.809.231,1.133.334a1,1,0,0,0,.189.281L42.8,26.063a28.58,28.58,0,0,0-4.012.508,1,1,0,0,0-.3.062l0,0a27.087,27.087,0,0,0-6.949,2.479,25.2,25.2,0,0,1-8.719,2.662c-1.863-1.656-3.508-3.142-4.23-3.875-1.268-1.286-3.067-4.641-4.074-6.387a2.976,2.976,0,0,1,.205-3.57l8.135-8.135a2.833,2.833,0,0,1,1.906-.824ZM4.127,25a.986.986,0,0,1,.834.723l6.342,22.2A7.024,7.024,0,0,0,18.033,53H45.967a7.023,7.023,0,0,0,6.73-5.078l5.186-18.147,0-.016,1.152-4.035a1,1,0,0,1,1.922.551l-6.342,22.2A9.043,9.043,0,0,1,45.967,55H18.033a9.044,9.044,0,0,1-8.652-6.527l-6.342-22.2a.984.984,0,0,1,.688-1.236l0,0A1.016,1.016,0,0,1,4.127,25Zm39.615,3.027c.308-.008.606,0,.908,0l4.066,4.336a.979.979,0,0,1-.018,1.363v0a.959.959,0,0,1-1.354.029l-.014-.014-6.219-5.514C42.005,28.128,42.888,28.051,43.742,28.029Zm3.795.158a32.382,32.382,0,0,1,8.166,1.93l-4.93,17.256A5.025,5.025,0,0,1,45.967,51H18.033a5.027,5.027,0,0,1-4.807-3.627L8.9,32.229a33.346,33.346,0,0,0,13.264,1.637c1.086.959,2.167,1.918,3.283,2.891,3.306,2.88,6.287,5.432,6.287,5.432l-.014-.014a3.3,3.3,0,0,0,4.508-.133,3.2,3.2,0,0,0,.758-1.3l1.383,1.275,0,0a3.283,3.283,0,0,0,4.525-.1l0,0a3.221,3.221,0,0,0,.875-1.895l.2.18h0a2.992,2.992,0,0,0,4.133-.072l0,0A2.975,2.975,0,0,0,48.18,36l-.006-.006-.012-.014a2.949,2.949,0,0,0,1.949-.828,3.009,3.009,0,0,0,.875-2.053s0-.005,0-.008A2.985,2.985,0,0,0,50.178,31l0,0Zm-9.014.49,8.193,8.682a.979.979,0,0,1-1.385,1.383l-.008-.008-9.988-9.1A25.24,25.24,0,0,1,38.523,28.678ZM33.285,30.5l8.2,8.2a1.28,1.28,0,0,1,0,1.807,1.261,1.261,0,0,1-1.758.037v0l-9.391-8.67c.708-.295,1.417-.621,2.127-.99C32.735,30.744,33.011,30.632,33.285,30.5ZM28.223,32.65l6.594,6.156a1.288,1.288,0,0,1-1.768,1.873l-.016-.012s-2.974-2.547-6.271-5.42c-.668-.582-1.3-1.146-1.973-1.738A27.37,27.37,0,0,0,28.223,32.65ZM16.984,44.986A1,1,0,0,0,16,46v2a1,1,0,1,0,2,0V46a1,1,0,0,0-1.016-1.014Zm5,0A1,1,0,0,0,21,46v2a1,1,0,1,0,2,0V46a1,1,0,0,0-1.016-1.014Zm5,0A1,1,0,0,0,26,46v2a1,1,0,1,0,2,0V46a1,1,0,0,0-1.016-1.014Zm5,0A1,1,0,0,0,31,46v2a1,1,0,1,0,2,0V46a1,1,0,0,0-1.016-1.014Zm5,0A1,1,0,0,0,36,46v2a1,1,0,1,0,2,0V46a1,1,0,0,0-1.016-1.014Zm5,0A1,1,0,0,0,41,46v2a1,1,0,1,0,2,0V46a1,1,0,0,0-1.016-1.014Zm5,0A1,1,0,0,0,46,46v2a1,1,0,1,0,2,0V46a1,1,0,0,0-1.016-1.014Z" transform="translate(-6662.001 4023.014)" fill="#fff"/></g></svg>