<svg xmlns="http://www.w3.org/2000/svg" xmlns:xlink="http://www.w3.org/1999/xlink" width="106" height="106" viewBox="0 0 106 106"><defs><filter id="a" x="0" y="0" width="106" height="106" filterUnits="userSpaceOnUse"><feOffset dx="2" input="SourceAlpha"/><feGaussianBlur stdDeviation="1" result="b"/><feFlood flood-opacity="0.161"/><feComposite operator="in" in2="b"/><feComposite in="SourceGraphic"/></filter></defs><g transform="translate(6681 -4127)"><g transform="matrix(1, 0, 0, 1, -6681, 4127)" filter="url(#a)"><path d="M10,0h90a0,0,0,0,1,0,0V100a0,0,0,0,1,0,0H10A10,10,0,0,1,0,90V10A10,10,0,0,1,10,0Z" transform="translate(1 3)" fill="#ec421d"/></g><path d="M51.5,6a6.416,6.416,0,0,0-4.521,1.945,1,1,0,0,0-.355.256l-3.27,3.709a13.8,13.8,0,0,0-4.631-2.973,18.587,18.587,0,0,0-15.209,1.188,1,1,0,1,0,.973,1.75,16.72,16.72,0,0,1,13.541-1.063,11.894,11.894,0,0,1,4.041,2.557L4.625,55.846a1,1,0,0,0-.248.668A2.3,2.3,0,0,0,4,57.5,2.515,2.515,0,0,0,6.5,60a2.294,2.294,0,0,0,.984-.375,1,1,0,0,0,.67-.25L44.363,27.457a60.684,60.684,0,0,1-2.775,7.006C39.828,38.36,38,42.708,38,47a11.126,11.126,0,0,0,6.4,10.1c3.81,1.732,8.837,1.081,13.309-3.391a1,1,0,1,0-1.414-1.414c-4.028,4.028-8,4.378-11.066,2.984A9.173,9.173,0,0,1,40,47c0-3.708,1.672-7.86,3.412-11.713,1.712-3.79,3.508-7.2,3.566-10.137l8.82-7.773a1,1,0,0,0,.254-.35A6.418,6.418,0,0,0,58,12.5,6.515,6.515,0,0,0,51.5,6Zm0,2a4.494,4.494,0,0,1,2.971,7.871q-.037.033-.07.07l0,0C46.077,23.277,9.238,55.752,6.9,57.816q-.035.025-.068.053A.478.478,0,0,1,6.5,58a.487.487,0,0,1-.5-.5.478.478,0,0,1,.131-.328q.029-.034.055-.07l.006-.008,37.2-42.2a8.755,8.755,0,0,1,.5.9l0,0a3.063,3.063,0,0,0,0,4.312,2.85,2.85,0,0,0,1.342.553,1,1,0,0,0,1.465.068,2.884,2.884,0,0,0,1.506-.621l2.9-2.9a3.049,3.049,0,1,0-4.312-4.313l-1.469,1.469a11.288,11.288,0,0,0-.566-1.02l3.3-3.748q.036-.032.068-.066A4.468,4.468,0,0,1,51.5,8Zm-2.551,5.994a1.047,1.047,0,0,1,.742.315,1.034,1.034,0,0,1,0,1.484l-2.9,2.9s-.008,0-.012.006a11.44,11.44,0,0,0-.443-2.52l1.869-1.869A1.047,1.047,0,0,1,48.949,13.994ZM30.607,17.361a1,1,0,0,0-.686,1.76l1.5,1.32a1,1,0,1,0,1.32-1.5l-1.5-1.32a1,1,0,0,0-.637-.258Zm-3.334,3.787a1,1,0,0,0-.685,1.76l1.5,1.322a1,1,0,0,0,1.322-1.5l-1.5-1.322A1,1,0,0,0,27.273,21.148Zm-3.332,3.787a1,1,0,0,0-.686,1.76l1.5,1.322a1,1,0,1,0,1.322-1.5l-1.5-1.32A1,1,0,0,0,23.941,24.935Zm-3.332,3.789a1,1,0,0,0-.687,1.76l1.5,1.32a1,1,0,1,0,1.32-1.5l-1.5-1.322A1,1,0,0,0,20.609,28.725Zm-3.336,3.787a1,1,0,0,0-.685,1.76l1.5,1.322a1,1,0,0,0,1.322-1.5l-1.5-1.322a1,1,0,0,0-.637-.258ZM13.941,36.3q-.05,0-.1,0a1,1,0,0,0-.586,1.76l1.5,1.32a1,1,0,1,0,1.322-1.5l-1.5-1.32a1,1,0,0,0-.635-.26Z" transform="translate(-6661 4147)" fill="#fff"/></g></svg>