<svg xmlns="http://www.w3.org/2000/svg" xmlns:xlink="http://www.w3.org/1999/xlink" width="106" height="106" viewBox="0 0 106 106"><defs><filter id="a" x="0" y="0" width="106" height="106" filterUnits="userSpaceOnUse"><feOffset dx="2" input="SourceAlpha"/><feGaussianBlur stdDeviation="1" result="b"/><feFlood flood-opacity="0.161"/><feComposite operator="in" in2="b"/><feComposite in="SourceGraphic"/></filter></defs><g transform="translate(6681 -4359)"><g transform="matrix(1, 0, 0, 1, -6681, 4359)" filter="url(#a)"><path d="M10,0h90a0,0,0,0,1,0,0V100a0,0,0,0,1,0,0H10A10,10,0,0,1,0,90V10A10,10,0,0,1,10,0Z" transform="translate(1 3)" fill="#ec421d"/></g><path d="M1,56a1,1,0,0,1-1-1V13a1,1,0,0,1,1-1H8V1.165A1,1,0,0,1,8.959,0a.86.86,0,0,1,.118,0H49a1,1,0,0,1,1,1V40a1,1,0,0,1-1,1H42V55a1,1,0,0,1-1,1Zm1-2H40V14H9.158a1,1,0,0,1-.327,0H2ZM41.351,12.069l.01,0,.008,0a1,1,0,0,1,.631,1.2V39h6V2H14.513ZM10,12H35.488L10,2.446ZM35.014,51V49a1,1,0,0,1,2,0v2a1,1,0,0,1-2,0Zm-5,0V49a1,1,0,1,1,2,0v2a1,1,0,1,1-2,0Zm-5,0V49a1,1,0,0,1,2,0v2a1,1,0,0,1-2,0Zm-5,0V49a1,1,0,1,1,2,0v2a1,1,0,1,1-2,0Zm-5,0V49a1,1,0,0,1,2,0v2a1,1,0,0,1-2,0Zm-5,0V49a1,1,0,1,1,2,0v2a1,1,0,1,1-2,0Zm-5,0V49a1,1,0,1,1,2,0v2a1,1,0,1,1-2,0Z" transform="translate(-6655 4384)" fill="#fff"/></g></svg>