<svg xmlns="http://www.w3.org/2000/svg" xmlns:xlink="http://www.w3.org/1999/xlink" width="106" height="106" viewBox="0 0 106 106"><defs><filter id="a" x="0" y="0" width="106" height="106" filterUnits="userSpaceOnUse"><feOffset dx="2" input="SourceAlpha"/><feGaussianBlur stdDeviation="1" result="b"/><feFlood flood-opacity="0.161"/><feComposite operator="in" in2="b"/><feComposite in="SourceGraphic"/></filter></defs><g transform="translate(6808 -3958)"><g transform="matrix(1, 0, 0, 1, -6808, 3958)" filter="url(#a)"><path d="M10,0h90a0,0,0,0,1,0,0V100a0,0,0,0,1,0,0H10A10,10,0,0,1,0,90V10A10,10,0,0,1,10,0Z" transform="translate(1 3)" fill="#ec421d"/></g><path d="M9,6A3,3,0,0,0,6,9V55a3,3,0,0,0,3,3H55a3,3,0,0,0,3-3V9a3,3,0,0,0-3-3ZM9,8H55a1,1,0,0,1,1,1V55a1,1,0,0,1-1,1H9a1,1,0,0,1-1-1V9A1,1,0,0,1,9,8Zm6,4a3,3,0,0,0-3,3v3a1,1,0,0,0,2,0V15a1,1,0,0,1,1-1H49a1,1,0,0,1,1,1V35a1,1,0,0,0,2,0V15a3,3,0,0,0-3-3Zm17.094,8a1,1,0,0,0-.8.291l-4,4A1,1,0,0,0,28.7,25.7L31,23.41V40H29a1,1,0,0,0,0,2h6a1,1,0,0,0,0-2H33V21a1,1,0,0,0-.906-1ZM12,21a1,1,0,0,0,0,2h2a1,1,0,0,0,0-2Zm0,5a1,1,0,0,0,0,2h2a1,1,0,0,0,0-2Zm0,5a1,1,0,0,0,0,2h2a1,1,0,0,0,0-2Zm0,5a1,1,0,0,0,0,2h2a1,1,0,0,0,0-2Zm39,2a1,1,0,0,0-1,1v4a1,1,0,0,0,2,0V39A1,1,0,0,0,51,38ZM12,41a1,1,0,0,0,0,2h2a1,1,0,0,0,0-2Zm1,4a1,1,0,0,0-1,1v3a3,3,0,0,0,3,3H49a3,3,0,0,0,3-3V47a1,1,0,0,0-2,0v2a1,1,0,0,1-1,1H15a1,1,0,0,1-1-1V46A1,1,0,0,0,13,45Z" transform="translate(-6789 3979)" fill="#fff"/></g></svg>