<svg xmlns="http://www.w3.org/2000/svg" xmlns:xlink="http://www.w3.org/1999/xlink" width="106" height="106" viewBox="0 0 106 106"><defs><filter id="a" x="0" y="0" width="106" height="106" filterUnits="userSpaceOnUse"><feOffset dx="2" input="SourceAlpha"/><feGaussianBlur stdDeviation="1" result="b"/><feFlood flood-opacity="0.161"/><feComposite operator="in" in2="b"/><feComposite in="SourceGraphic"/></filter></defs><g transform="translate(6681 -4481)"><g transform="matrix(1, 0, 0, 1, -6681, 4481)" filter="url(#a)"><path d="M10,0h90a0,0,0,0,1,0,0V100a0,0,0,0,1,0,0H10A10,10,0,0,1,0,90V10A10,10,0,0,1,10,0Z" transform="translate(1 3)" fill="#ec421d"/></g><path d="M29.638,60a3,3,0,0,1-3-3V3a3,3,0,0,1,3-3h4a3,3,0,0,1,3,3V57a3,3,0,0,1-3,3Zm-1-57V57a1,1,0,0,0,1,1h4a1,1,0,0,0,1-1V3a1,1,0,0,0-1-1h-4A1,1,0,0,0,28.638,3Zm1.944,52a1,1,0,1,1,1,1A1,1,0,0,1,30.582,55Zm0-5a1,1,0,1,1,1,1A1,1,0,0,1,30.582,50Zm0-5a1,1,0,1,1,1,1A1,1,0,0,1,30.582,45ZM55.36,43.409,40.049,28.1a1.857,1.857,0,0,1,0-2.623L48.1,17.42a.619.619,0,0,1,.875.875L40.924,26.35a.618.618,0,0,0,0,.874l15.311,15.31a.619.619,0,0,0,.875,0l1.75-1.748a.622.622,0,0,0,0-.877L46.174,27.224a.617.617,0,0,1,0-.874L58.859,13.665a.621.621,0,0,0,0-.876L57.11,11.04a.619.619,0,0,0-.875,0l-2.007,2.006a.619.619,0,0,1-.875-.875l2.007-2.006a1.858,1.858,0,0,1,2.624,0l1.75,1.749a1.86,1.86,0,0,1,0,2.625L47.486,26.788,59.734,39.035a1.859,1.859,0,0,1,0,2.625l-1.75,1.749a1.858,1.858,0,0,1-2.624,0Zm-50.068,0L3.542,41.66a1.859,1.859,0,0,1,0-2.625L15.791,26.787,3.542,14.54a1.861,1.861,0,0,1,0-2.626l1.75-1.748a1.858,1.858,0,0,1,2.624,0l2.007,2.005a.619.619,0,0,1-.875.875L7.042,11.04a.617.617,0,0,0-.875,0l-1.75,1.748a.622.622,0,0,0,0,.877L17.1,26.349a.618.618,0,0,1,0,.875L4.417,39.91a.621.621,0,0,0,0,.876l1.75,1.749a.619.619,0,0,0,.875,0l15.311-15.31a.619.619,0,0,0,0-.875L14.3,18.294a.619.619,0,0,1,.875-.875l8.055,8.055a1.858,1.858,0,0,1,0,2.624L7.916,43.409a1.858,1.858,0,0,1-2.624,0ZM30.582,40a1,1,0,1,1,1,1A1,1,0,0,1,30.582,40Zm24.191.291a.617.617,0,0,1,0-.875l.875-.873a.617.617,0,0,1,.874,0,.615.615,0,0,1,0,.873l-.874.875a.618.618,0,0,1-.875,0Zm-47.145,0-.874-.875a.618.618,0,0,1,.874-.873l.875.873a.619.619,0,1,1-.875.875Zm45.24-1.9a.617.617,0,0,1,0-.875l.875-.876a.619.619,0,0,1,.876,0,.609.609,0,0,1,.181.437.618.618,0,0,1-.181.437l-.875.876a.619.619,0,0,1-.876,0Zm-43.337,0-.875-.876a.62.62,0,0,1-.181-.437.619.619,0,0,1,1.057-.437l.875.876a.619.619,0,1,1-.876.875ZM30.582,35a1,1,0,1,1,1,1A1,1,0,0,1,30.582,35Zm0-5a1,1,0,1,1,1,1A1,1,0,0,1,30.582,30Zm0-5a1,1,0,1,1,1,1A1,1,0,0,1,30.582,25Zm0-5a1,1,0,1,1,1,1A1,1,0,0,1,30.582,20Zm19.272-3.455a.619.619,0,0,1,0-.875l1.75-1.75a.619.619,0,1,1,.875.875l-1.75,1.75a.618.618,0,0,1-.875,0Zm-37.306,0L10.8,14.8a.619.619,0,0,1,.875-.875l1.75,1.75a.619.619,0,1,1-.875.875ZM30.582,15a1,1,0,1,1,1,1A1,1,0,0,1,30.582,15Zm0-5a1,1,0,1,1,1,1A1,1,0,0,1,30.582,10Zm0-5a1,1,0,1,1,1,1A1,1,0,0,1,30.582,5Z" transform="translate(-6661.638 4504)" fill="#fff"/></g></svg>