<svg xmlns="http://www.w3.org/2000/svg" xmlns:xlink="http://www.w3.org/1999/xlink" width="592" height="340" viewBox="0 0 592 340"><defs><filter id="a" x="0" y="0" width="592" height="340" filterUnits="userSpaceOnUse"><feOffset dy="10" input="SourceAlpha"/><feGaussianBlur stdDeviation="10" result="b"/><feFlood flood-opacity="0.412"/><feComposite operator="in" in2="b"/><feComposite in="SourceGraphic"/></filter><clipPath id="c"><rect width="323.671" height="134.18" fill="none"/></clipPath></defs><g transform="translate(-554 -871)"><g transform="matrix(1, 0, 0, 1, 554, 871)" filter="url(#a)"><ellipse cx="266" cy="140" rx="266" ry="140" transform="translate(30 20)" fill="#fff"/></g><path d="M66.6,0,0,73.536v31.937H75.746V86.2H19.778V79.254L73.911,17.784H87.191V75.413h18.781V0Z" transform="translate(688.164 963.91)" fill="#ec421d"/><path d="M102.948,102.683v47.275h15.183v-21.78l22.458,19.559,9.924-11.4-21.055-18.337h21.055V102.683Z" transform="translate(672.345 948.132)" fill="#ec421d"/><path d="M53.038,79.223H82.869V46.749Z" transform="translate(680.014 956.727)" fill="#050605"/><g transform="translate(688.164 963.91)" clip-path="url(#c)"><path d="M334.217,81.707H304.709l3.864,4.961-.066,57.781h25.639a4.218,4.218,0,0,0,4.239-4.19l.062-54.362a4.206,4.206,0,0,0-4.229-4.19m-5.9,53.3h-10.25l.05-43.851h10.25a.526.526,0,0,1,.529.524l-.049,42.8a.527.527,0,0,1-.53.524" transform="translate(-46.822 -12.555)" fill="#050605"/><path d="M222.085,85.9l-.015,13.092-9.55,3.142.012-10.455a.525.525,0,0,0-.528-.524h-9.721a.527.527,0,0,0-.53.524l-.049,42.8a.526.526,0,0,0,.529.523h9.721a.528.528,0,0,0,.53-.523l.012-10.75L208.552,125l.011-9.447,13.493-4.336-.033,29.046a4.217,4.217,0,0,1-4.239,4.189h-21.4a4.206,4.206,0,0,1-4.23-4.189l.063-54.363a4.218,4.218,0,0,1,4.239-4.19h21.4a4.207,4.207,0,0,1,4.23,4.19" transform="translate(-29.526 -12.555)" fill="#050605"/><path d="M377.094,85.9l-.015,13.091-9.551,3.142.013-10.452a.526.526,0,0,0-.529-.524H357.8a.527.527,0,0,0-.53.524l-.013,11.344c0,3.794,1.087,4.081,4.7,5.031.471.124.978.257,1.522.409.561.2,1.182.361,1.839.535,3.853,1.017,11.743,3.1,11.73,14.138l-.019,17.126a4.218,4.218,0,0,1-4.239,4.189H351.9a4.206,4.206,0,0,1-4.23-4.189l.015-13.092,9.551-3.142-.013,10.454a.526.526,0,0,0,.529.523h9.212a.528.528,0,0,0,.53-.523l.013-11.345c0-3.781-.97-4.037-4.593-5-.653-.172-1.329-.352-1.995-.563-.379-.121-.825-.238-1.3-.363-3.9-1.025-11.923-3.128-11.91-14.191l.019-17.125a4.219,4.219,0,0,1,4.239-4.19h20.9a4.208,4.208,0,0,1,4.23,4.19" transform="translate(-53.423 -12.555)" fill="#050605"/><path d="M256.576,81.707H235.17a4.219,4.219,0,0,0-4.239,4.19l-.062,54.362a4.207,4.207,0,0,0,4.23,4.19h21.4a4.219,4.219,0,0,0,4.239-4.19L260.8,85.9a4.206,4.206,0,0,0-4.229-4.19m-5.9,53.3h-9.721a.525.525,0,0,1-.528-.524l.048-42.8a.528.528,0,0,1,.53-.523h9.721a.526.526,0,0,1,.529.523l-.049,42.8a.527.527,0,0,1-.53.524" transform="translate(-35.476 -12.555)" fill="#050605"/><path d="M295.375,81.707H273.969a4.219,4.219,0,0,0-4.239,4.19l-.062,54.362a4.207,4.207,0,0,0,4.23,4.19h21.4a4.219,4.219,0,0,0,4.239-4.19L299.6,85.9a4.206,4.206,0,0,0-4.229-4.19m-5.9,53.3H279.75a.525.525,0,0,1-.528-.524l.048-42.8a.528.528,0,0,1,.53-.523h9.721a.526.526,0,0,1,.529.523l-.049,42.8a.527.527,0,0,1-.53.524" transform="translate(-41.437 -12.555)" fill="#050605"/><path d="M176.379.7H166.9L141.147,55.261l-.01,8.347h24.3l-.013,11.564h9.546l.014-11.564h4.65l2.01-9.447H175ZM165.451,54.161H152.225l14.583-31.15Z" transform="translate(-21.687 -0.108)" fill="#050605"/><path d="M201.848,10.147l-.019,17.2H214.15l-3.186,9.445h-9.146L201.8,54h20.369l-3.187,9.446H192.24l.066-57.78L188.442.7h33.785l-3.186,9.445Z" transform="translate(-28.956 -0.108)" fill="#050605"/><path d="M280.74,10.147l-.019,17.2h12.322l-3.186,9.445h-9.146L280.69,54h20.369l-3.187,9.446H271.132l.066-57.78L267.334.7h33.785l-3.186,9.445Z" transform="translate(-41.079 -0.108)" fill="#050605"/><path d="M342.415,29.247l.028-24.356A4.206,4.206,0,0,0,338.214.7L308.7.7l3.864,4.962L312.5,63.443h9.547l.03-26.648h5.139l7.066,26.648h10.128l-7.2-27.049a7.566,7.566,0,0,0,5.206-7.147m-10.074-1.9h-10.25l.02-17.2h10.25a.527.527,0,0,1,.529.524l-.019,16.153a.527.527,0,0,1-.53.524" transform="translate(-47.436 -0.107)" fill="#050605"/><path d="M250.821.7H260.5L249.864,63.443h-9.273L230.1.7h9.679l5.484,32.8Z" transform="translate(-35.357 -0.108)" fill="#050605"/></g></g></svg>