<svg xmlns="http://www.w3.org/2000/svg" width="214" height="214" viewBox="0 0 214 214"><g transform="translate(-1180 -395)"><rect width="214" height="214" transform="translate(1180 395)" fill="#ec421d"/><path d="M43.349,3.074a1.619,1.619,0,0,0-1.15.464l-8.275,8.276A1.405,1.405,0,1,0,35.911,13.8l6.033-6.033V25.455a1.405,1.405,0,1,0,2.811,0V7.768L50.788,13.8a1.405,1.405,0,1,0,1.987-1.987L44.5,3.538A1.619,1.619,0,0,0,43.349,3.074ZM71.456,17.128a1.619,1.619,0,0,0-1.15.464l-8.275,8.276a1.405,1.405,0,1,0,1.987,1.987l6.033-6.033V39.509a1.405,1.405,0,1,0,2.811,0V21.821l6.033,6.033a1.405,1.405,0,1,0,1.987-1.987l-8.275-8.276A1.619,1.619,0,0,0,71.456,17.128ZM15.243,26.965a1.619,1.619,0,0,0-1.15.464L5.817,35.7A1.405,1.405,0,1,0,7.8,37.692l6.033-6.033V49.346a1.405,1.405,0,1,0,2.811,0V31.659l6.033,6.033A1.405,1.405,0,1,0,24.668,35.7l-8.275-8.276A1.619,1.619,0,0,0,15.243,26.965Zm18.269,4.112a1.405,1.405,0,0,0-1.405,1.405V81.669a1.405,1.405,0,0,0,1.405,1.405H53.187a1.405,1.405,0,0,0,1.405-1.405V32.482a1.405,1.405,0,0,0-1.405-1.405Zm1.405,2.811H51.782V80.264H34.917Zm26.7,11.243a1.405,1.405,0,0,0-1.405,1.405V81.669a1.405,1.405,0,0,0,1.405,1.405H81.294A1.405,1.405,0,0,0,82.7,81.669V46.535a1.405,1.405,0,0,0-1.405-1.405Zm1.405,2.811H79.888V80.264H63.024Zm9.837,4.216a1.405,1.405,0,1,0,0,2.811h2.811a1.405,1.405,0,0,0,0-2.811ZM5.405,54.967A1.405,1.405,0,0,0,4,56.373v25.3a1.405,1.405,0,0,0,1.405,1.405H25.08a1.405,1.405,0,0,0,1.405-1.405v-25.3a1.405,1.405,0,0,0-1.405-1.405Zm1.405,2.811H23.675V80.264H6.811Zm66.051,1.405a1.405,1.405,0,1,0,0,2.811h2.811a1.405,1.405,0,0,0,0-2.811ZM16.648,60.589a1.405,1.405,0,1,0,0,2.811h2.811a1.405,1.405,0,1,0,0-2.811ZM72.862,66.21a1.405,1.405,0,1,0,0,2.811h2.811a1.405,1.405,0,0,0,0-2.811ZM16.648,67.616a1.405,1.405,0,1,0,0,2.811h2.811a1.405,1.405,0,1,0,0-2.811Zm56.214,5.621a1.405,1.405,0,1,0,0,2.811h2.811a1.405,1.405,0,0,0,0-2.811ZM16.648,74.642a1.405,1.405,0,0,0,0,2.811h2.811a1.405,1.405,0,0,0,0-2.811Z" transform="translate(1244 459.109)" fill="#fff"/></g></svg>