<svg xmlns="http://www.w3.org/2000/svg" width="214" height="214" viewBox="0 0 214 214"><g transform="translate(-1180 -649)"><rect width="214" height="214" transform="translate(1180 649)" fill="#ec421d"/><path d="M43.509,4A26.7,26.7,0,0,0,16.842,30.667c0,6.979,3.9,12.193,7.681,17.237,3.015,4.029,5.855,7.867,6.354,12.237v9.825A9.834,9.834,0,0,0,39.3,79.68v1.513A2.812,2.812,0,0,0,42.105,84h2.807a2.812,2.812,0,0,0,2.807-2.807V79.68a9.834,9.834,0,0,0,8.421-9.715V61.4c.022-4.907,3.12-9.079,6.4-13.5,3.756-5.044,7.632-10.258,7.632-17.237A26.7,26.7,0,0,0,43.509,4Zm0,2.807a23.885,23.885,0,0,1,23.86,23.86c0,6.053-3.6,10.888-7.072,15.565-3.147,4.233-6.392,8.591-6.9,13.821H44.912V55.93a1.4,1.4,0,1,0-2.807,0v4.128H33.723c-.51-5.23-3.783-9.6-6.952-13.838-3.5-4.676-7.122-9.507-7.122-15.554A23.885,23.885,0,0,1,43.509,6.807Zm-.192,4.205a19.549,19.549,0,0,0-10.6,3.229,1.4,1.4,0,0,0,1.546,2.341A16.78,16.78,0,0,1,46.573,14.1a1.4,1.4,0,0,0,.51-2.758A19.441,19.441,0,0,0,43.317,11.012Zm9.819,2.637a1.419,1.419,0,0,0-1.4.663,1.4,1.4,0,0,0,.482,1.93,16.825,16.825,0,0,1,3.2,2.516,1.405,1.405,0,0,0,1.99-1.985,19.854,19.854,0,0,0-3.744-2.933A1.454,1.454,0,0,0,53.136,13.649ZM7.05,14.543a1.4,1.4,0,0,0-.5,2.7l5.208,2.105a1.338,1.338,0,0,0,.521.1,1.4,1.4,0,0,0,.526-2.708L7.6,14.641A1.385,1.385,0,0,0,7.05,14.543Zm72.917,0a1.386,1.386,0,0,0-.548.1l-5.2,2.105a1.4,1.4,0,0,0,.526,2.708,1.338,1.338,0,0,0,.521-.1l5.208-2.105a1.4,1.4,0,0,0-.5-2.7ZM1.4,29.263a1.4,1.4,0,0,0,0,2.807H9.825a1.4,1.4,0,0,0,0-2.807Zm75.789,0a1.4,1.4,0,1,0,0,2.807h8.421a1.4,1.4,0,1,0,0-2.807Zm-39.3,5.614a1.4,1.4,0,0,0-.992,2.4l2.807,2.807A1.4,1.4,0,0,0,41.694,38.1l-2.807-2.807A1.4,1.4,0,0,0,37.895,34.877Zm11.228,0a1.4,1.4,0,0,0-.992.411L42.516,40.9a1.4,1.4,0,0,0-.411.992v8.421a1.4,1.4,0,1,0,2.807,0v-7.84l5.2-5.2a1.4,1.4,0,0,0-.992-2.4Zm-36.82,7a1.453,1.453,0,0,0-.548.1L6.546,44.088a1.4,1.4,0,0,0,.526,2.7,1.47,1.47,0,0,0,.526-.1l5.2-2.105a1.4,1.4,0,0,0-.5-2.708Zm62.412.005a1.4,1.4,0,0,0-.5,2.708l5.2,2.1a1.358,1.358,0,0,0,.526.1,1.4,1.4,0,0,0,.526-2.7l-5.208-2.105A1.349,1.349,0,0,0,74.715,41.884ZM33.684,62.947H53.333v1.568L33.684,66.972Zm19.649,4.4v2.621c0,.055-.016.11-.016.17L39.062,71.917a1.4,1.4,0,0,0,.175,2.791.944.944,0,0,0,.175-.011l13.174-1.645a7,7,0,0,1-6.272,3.931H40.7a7.024,7.024,0,0,1-7.018-7.018V69.8ZM42.105,79.789h2.807v1.4H42.105Z" transform="translate(1243 711.538)" fill="#fff"/></g></svg>