<svg xmlns="http://www.w3.org/2000/svg" width="214" height="214" viewBox="0 0 214 214"><g transform="translate(-1180 -142)"><rect width="214" height="214" transform="translate(1180 142)" fill="#ec421d"/><path d="M20.757,0A16.774,16.774,0,0,0,4,16.757c0,4.4,2.283,7.6,4.3,10.415,1.775,2.483,3.455,4.831,3.455,7.722v2.577a9.02,9.02,0,0,0,3.1,6.8,17.459,17.459,0,0,0,.472,2.589c1.1,4.122,3.422,7.148,5.86,7.811C25.22,67.387,35.45,80,47.611,80S70,67.387,74.037,54.67c2.438-.663,4.757-3.688,5.86-7.811a14.75,14.75,0,0,0,.366-6.587c-.456-2.225-1.572-3.684-3.142-4.1a3.569,3.569,0,0,0-2.026.093A24.252,24.252,0,0,0,73.779,28.4a2.425,2.425,0,0,1-.235-1.179c.367-.292,2.264-.035,4.066.712a1.292,1.292,0,0,0,1.756-1.469C76.1,11.511,65,2.584,49.688,2.584H47.611A30.53,30.53,0,0,0,33.7,6.122,16.729,16.729,0,0,0,20.757,0Zm0,2.584A14.191,14.191,0,0,1,34.933,16.757c0,3.578-1.836,6.17-3.78,8.916-1.685,2.381-3.422,4.835-3.813,7.922H14.254c-.4-3.092-2.152-5.545-3.854-7.927-1.963-2.744-3.816-5.338-3.816-8.911A14.189,14.189,0,0,1,20.757,2.584ZM47.611,5.168h2.077c13.446,0,23.025,7.118,26.594,19.627-1.556-.362-3.432-.489-4.525.56-.908.872-1.046,2.2-.4,3.94a25.949,25.949,0,0,1,1.077,10.584,1.293,1.293,0,0,0,1.206,1.373l.083,0a1.291,1.291,0,0,0,1.287-1.209c.021-.32.031-.627.045-.939a1.148,1.148,0,0,0,.22-.088,1.654,1.654,0,0,1,1.179-.353c.559.15,1.035.944,1.277,2.125a12.333,12.333,0,0,1-.325,5.4c-1.054,3.937-3.208,6.034-4.358,6.034h0a1.3,1.3,0,0,0-1.239.924C68.219,65.209,58.758,77.416,47.611,77.416S27,65.209,23.42,53.148a1.3,1.3,0,0,0-1.239-.924h0c-1.15,0-3.3-2.1-4.358-6.034-.018-.068-.027-.136-.045-.2a9.021,9.021,0,0,0,12.068-8.515V34.887c0-2.89,1.661-5.236,3.42-7.72a38.121,38.121,0,0,0,2.418-3.743l2.074,1.01a42.008,42.008,0,0,0,18.531,4.331,1.292,1.292,0,1,0,0-2.584,39.465,39.465,0,0,1-17.4-4.068l-2.135-1.04a12.662,12.662,0,0,0,.767-4.313,16.62,16.62,0,0,0-2.35-8.51A27.987,27.987,0,0,1,47.611,5.168Zm-.258,2.589A1.291,1.291,0,0,0,46.17,9.148l.2,2.5a1.292,1.292,0,0,0,1.287,1.189c.034,0,.069,0,.1-.005a1.293,1.293,0,0,0,1.186-1.391l-.2-2.5A1.294,1.294,0,0,0,47.354,7.758Zm7.256.346a1.288,1.288,0,0,0-1.484,1.068l-.4,2.468a1.292,1.292,0,0,0,2.551.414l.4-2.466A1.293,1.293,0,0,0,54.609,8.1Zm6.428,2.251a1.288,1.288,0,0,0-1.194.78l-.982,2.271a1.292,1.292,0,1,0,2.372,1.025l.979-2.271a1.292,1.292,0,0,0-1.176-1.8Zm5.683,4.061a1.29,1.29,0,0,0-.858.49l-1.489,1.918a1.292,1.292,0,0,0,2.042,1.585L67.9,16.49a1.292,1.292,0,0,0-1.184-2.074Zm-51.091,1.09a1.292,1.292,0,0,0-.914,2.206L17.3,20.3a1.292,1.292,0,0,0,1.827-1.827l-2.584-2.584A1.288,1.288,0,0,0,15.629,15.505Zm10.337,0a1.287,1.287,0,0,0-.914.379l-5.168,5.168a1.286,1.286,0,0,0-.379.914v7.753a1.292,1.292,0,1,0,2.584,0V22.5l4.79-4.79a1.292,1.292,0,0,0-.914-2.206ZM61.835,26.18a1.292,1.292,0,1,0,0,2.584H66a1.292,1.292,0,1,0,0-2.584Zm-34.577,10v1.292a6.461,6.461,0,1,1-12.921,0V36.187ZM36.3,38.763a2.584,2.584,0,1,0,2.584,2.584A2.584,2.584,0,0,0,36.3,38.763Zm24.55,0a2.584,2.584,0,1,0,2.584,2.584A2.584,2.584,0,0,0,60.853,38.763Z" transform="translate(1245 208.28)" fill="#fff"/></g></svg>