<svg xmlns="http://www.w3.org/2000/svg" width="87.533" height="70.027" viewBox="0 0 87.533 70.027"><path d="M6.377,14a4.366,4.366,0,0,0-1.459,8.485V70.9a4.382,4.382,0,0,0,4.377,4.377h2.653l-.892,5.357a2.918,2.918,0,0,0,2.881,3.4h2.878a2.911,2.911,0,0,0,2.878-2.439l1.051-6.314H70.79l1.051,6.317a2.91,2.91,0,0,0,2.878,2.436H77.6a2.914,2.914,0,0,0,2.878-3.4l-.889-5.357h2.653A4.382,4.382,0,0,0,86.615,70.9V22.485A4.366,4.366,0,0,0,85.157,14Zm0,2.918h78.78a1.459,1.459,0,0,1,0,2.918H6.377a1.459,1.459,0,0,1,0-2.918Zm1.459,5.836H83.7V43.178H7.836Zm29.178,8.753a1.459,1.459,0,1,0,0,2.918H51.6a1.459,1.459,0,1,0,0-2.918ZM7.836,46.1H83.7V70.9a1.459,1.459,0,0,1-1.459,1.459H9.294A1.459,1.459,0,0,1,7.836,70.9Zm29.178,5.836a1.459,1.459,0,1,0,0,2.918H51.6a1.459,1.459,0,0,0,0-2.918ZM12.212,63.6a1.458,1.458,0,0,0-1.459,1.459v2.918a1.459,1.459,0,1,0,2.918,0V65.061A1.458,1.458,0,0,0,12.212,63.6Zm7.294,0a1.458,1.458,0,0,0-1.459,1.459v2.918a1.459,1.459,0,1,0,2.918,0V65.061A1.458,1.458,0,0,0,19.507,63.6Zm7.294,0a1.458,1.458,0,0,0-1.459,1.459v2.918a1.459,1.459,0,1,0,2.918,0V65.061A1.458,1.458,0,0,0,26.8,63.6Zm7.294,0a1.458,1.458,0,0,0-1.459,1.459v2.918a1.459,1.459,0,1,0,2.918,0V65.061A1.458,1.458,0,0,0,34.1,63.6Zm7.294,0a1.458,1.458,0,0,0-1.459,1.459v2.918a1.459,1.459,0,1,0,2.918,0V65.061A1.458,1.458,0,0,0,41.39,63.6Zm7.294,0a1.458,1.458,0,0,0-1.459,1.459v2.918a1.459,1.459,0,1,0,2.918,0V65.061A1.458,1.458,0,0,0,48.684,63.6Zm7.294,0a1.458,1.458,0,0,0-1.459,1.459v2.918a1.459,1.459,0,1,0,2.918,0V65.061A1.458,1.458,0,0,0,55.979,63.6Zm7.294,0a1.458,1.458,0,0,0-1.459,1.459v2.918a1.459,1.459,0,1,0,2.918,0V65.061A1.458,1.458,0,0,0,63.273,63.6Zm7.294,0a1.458,1.458,0,0,0-1.459,1.459v2.918a1.459,1.459,0,1,0,2.918,0V65.061A1.458,1.458,0,0,0,70.568,63.6Zm7.294,0A1.458,1.458,0,0,0,76.4,65.061v2.918a1.459,1.459,0,1,0,2.918,0V65.061A1.458,1.458,0,0,0,77.862,63.6ZM14.908,75.273h2.875l-.972,5.836H13.933Zm58.843,0h2.878l.975,5.836H74.722Z" transform="translate(-2 -14)" fill="#5b5b5b"/></svg>