<svg xmlns="http://www.w3.org/2000/svg" xmlns:xlink="http://www.w3.org/1999/xlink" width="139.077" height="57.655" viewBox="0 0 139.077 57.655"><defs><clipPath id="a"><rect width="139.077" height="57.655" fill="none"/></clipPath></defs><path d="M28.619,0,0,31.6V45.32H32.547V37.037H8.5V34.054L31.758,7.641h5.707V32.4h8.07V0Z" transform="translate(0 0)" fill="#ec421d"/><path d="M102.948,102.683V123h6.524v-9.358l9.65,8.4,4.264-4.9-9.047-7.879h9.047v-6.584Z" transform="translate(-65.51 -65.341)" fill="#ec421d"/><path d="M53.038,60.7H65.856V46.749Z" transform="translate(-33.75 -29.748)" fill="#050605"/><g transform="translate(0 0)"><g clip-path="url(#a)"><path d="M317.388,81.707H304.709l1.66,2.132-.028,24.828h11.017a1.812,1.812,0,0,0,1.821-1.8l.027-23.359a1.807,1.807,0,0,0-1.817-1.8m-2.536,22.9h-4.4l.021-18.842h4.4a.226.226,0,0,1,.227.225l-.021,18.392a.226.226,0,0,1-.228.225" transform="translate(-193.899 -51.993)" fill="#050605"/><path d="M205.013,83.507l-.007,5.625-4.1,1.35.005-4.492a.226.226,0,0,0-.227-.225H196.5a.227.227,0,0,0-.228.225l-.021,18.392a.226.226,0,0,0,.227.225h4.177a.227.227,0,0,0,.228-.225l.005-4.619-1.694.544,0-4.059,5.8-1.863-.014,12.481a1.812,1.812,0,0,1-1.822,1.8h-9.2a1.807,1.807,0,0,1-1.818-1.8l.027-23.359a1.812,1.812,0,0,1,1.822-1.8h9.2a1.808,1.808,0,0,1,1.818,1.8" transform="translate(-122.273 -51.993)" fill="#050605"/><path d="M360.311,83.507l-.007,5.625-4.1,1.35.005-4.491a.226.226,0,0,0-.227-.225h-3.958a.227.227,0,0,0-.228.225l-.005,4.874c0,1.63.467,1.754,2.021,2.162.2.053.42.111.654.176.241.084.508.155.79.23,1.656.437,5.046,1.334,5.04,6.075l-.008,7.359a1.813,1.813,0,0,1-1.822,1.8h-8.979a1.807,1.807,0,0,1-1.818-1.8l.007-5.625,4.1-1.35-.005,4.492a.226.226,0,0,0,.227.225h3.958a.227.227,0,0,0,.228-.225l.005-4.875c0-1.624-.417-1.735-1.974-2.147-.281-.074-.571-.151-.857-.242-.163-.052-.355-.1-.557-.156-1.678-.44-5.123-1.344-5.118-6.1l.008-7.358a1.813,1.813,0,0,1,1.822-1.8h8.979a1.808,1.808,0,0,1,1.818,1.8" transform="translate(-221.235 -51.993)" fill="#050605"/><path d="M241.915,81.707h-9.2a1.813,1.813,0,0,0-1.822,1.8l-.027,23.359a1.808,1.808,0,0,0,1.818,1.8h9.2a1.813,1.813,0,0,0,1.822-1.8l.027-23.359a1.807,1.807,0,0,0-1.817-1.8m-2.537,22.9H235.2a.226.226,0,0,1-.227-.225L235,85.991a.227.227,0,0,1,.228-.225H239.4a.226.226,0,0,1,.227.225l-.021,18.391a.226.226,0,0,1-.228.225" transform="translate(-146.911 -51.993)" fill="#050605"/><path d="M280.714,81.707h-9.2a1.813,1.813,0,0,0-1.822,1.8l-.027,23.359a1.808,1.808,0,0,0,1.818,1.8h9.2a1.813,1.813,0,0,0,1.822-1.8l.027-23.359a1.807,1.807,0,0,0-1.817-1.8m-2.536,22.9H274a.226.226,0,0,1-.227-.225l.021-18.391a.227.227,0,0,1,.228-.225H278.2a.226.226,0,0,1,.227.225l-.021,18.391a.226.226,0,0,1-.228.225" transform="translate(-171.601 -51.993)" fill="#050605"/><path d="M156.28.7h-4.072L141.141,24.145l0,3.586H151.58l-.005,4.969h4.1l.006-4.969h2l.864-4.059h-2.857Zm-4.7,22.971H145.9l6.266-13.385Z" transform="translate(-89.811 -0.447)" fill="#050605"/><path d="M194.2,4.76l-.008,7.392h5.295l-1.369,4.058h-3.93l-.008,7.392h8.752l-1.37,4.059H190.074L190.1,2.833,188.442.7h14.517L201.59,4.76Z" transform="translate(-119.913 -0.446)" fill="#050605"/><path d="M273.094,4.76l-.008,7.392h5.294l-1.369,4.058h-3.93l-.008,7.392h8.752l-1.37,4.059H268.966l.028-24.827L267.334.7H281.85L280.481,4.76Z" transform="translate(-170.115 -0.446)" fill="#050605"/><path d="M323.19,12.966,323.2,2.5A1.807,1.807,0,0,0,321.385.7H308.7l1.66,2.132-.028,24.828h4.1l.013-11.45h2.208l3.036,11.45h4.352l-3.1-11.623a3.251,3.251,0,0,0,2.237-3.071m-4.329-.816h-4.4l.008-7.391h4.4a.226.226,0,0,1,.227.225l-.008,6.941a.227.227,0,0,1-.228.225" transform="translate(-196.442 -0.445)" fill="#050605"/><path d="M239,.7h4.159l-4.57,26.959h-3.985L230.1.7h4.159l2.357,14.092Z" transform="translate(-146.421 -0.447)" fill="#050605"/></g></g></svg>