<svg xmlns="http://www.w3.org/2000/svg" width="78.78" height="94.828" viewBox="0 0 78.78 94.828"><path d="M8.377-3A4.382,4.382,0,0,0,4,1.377,4.371,4.371,0,0,0,6.918,5.485v76.13a4.382,4.382,0,0,0,4.377,4.377H13.8L13.249,88.2a2.918,2.918,0,0,0,2.832,3.624h2.827a2.909,2.909,0,0,0,2.829-2.211l.909-3.624H64.134l.909,3.624a2.91,2.91,0,0,0,2.83,2.211H70.7A2.917,2.917,0,0,0,73.528,88.2l-.55-2.211h2.507a4.382,4.382,0,0,0,4.377-4.377V5.485A4.371,4.371,0,0,0,82.78,1.377,4.382,4.382,0,0,0,78.4-3Zm0,2.918H78.4a1.459,1.459,0,0,1,0,2.918H8.377a1.459,1.459,0,0,1,0-2.918ZM9.836,5.753h32.1V83.074H11.294a1.459,1.459,0,0,1-1.459-1.459Zm35.013,0h32.1V81.615a1.459,1.459,0,0,1-1.459,1.459H44.849ZM34.637,39.308a1.458,1.458,0,0,0-1.459,1.459V49.52a1.459,1.459,0,1,0,2.918,0V40.767A1.458,1.458,0,0,0,34.637,39.308Zm17.507,0a1.458,1.458,0,0,0-1.459,1.459V49.52a1.459,1.459,0,1,0,2.918,0V40.767A1.458,1.458,0,0,0,52.143,39.308ZM14.212,74.321a1.458,1.458,0,0,0-1.459,1.459V78.7a1.459,1.459,0,0,0,2.918,0V75.78A1.458,1.458,0,0,0,14.212,74.321Zm7.294,0a1.458,1.458,0,0,0-1.459,1.459V78.7a1.459,1.459,0,0,0,2.918,0V75.78A1.458,1.458,0,0,0,21.507,74.321Zm7.294,0a1.458,1.458,0,0,0-1.459,1.459V78.7a1.459,1.459,0,0,0,2.918,0V75.78A1.458,1.458,0,0,0,28.8,74.321Zm7.294,0a1.458,1.458,0,0,0-1.459,1.459V78.7a1.459,1.459,0,0,0,2.918,0V75.78A1.458,1.458,0,0,0,36.1,74.321Zm14.589,0a1.458,1.458,0,0,0-1.459,1.459V78.7a1.459,1.459,0,0,0,2.918,0V75.78A1.458,1.458,0,0,0,50.684,74.321Zm7.294,0A1.458,1.458,0,0,0,56.52,75.78V78.7a1.459,1.459,0,0,0,2.918,0V75.78A1.458,1.458,0,0,0,57.979,74.321Zm7.294,0a1.458,1.458,0,0,0-1.459,1.459V78.7a1.459,1.459,0,0,0,2.918,0V75.78A1.458,1.458,0,0,0,65.273,74.321Zm7.294,0a1.458,1.458,0,0,0-1.459,1.459V78.7a1.459,1.459,0,0,0,2.918,0V75.78A1.458,1.458,0,0,0,72.568,74.321ZM16.811,85.992h2.827l-.727,2.915-2.832,0Zm50.332,0h2.827L70.7,88.91H67.869Z" transform="translate(-4 3)" fill="#5b5b5b"/></svg>